<?xml version="1.0" encoding="UTF-8"?>
<svg width="500px" height="466px" viewBox="0 0 500 466" version="1.1" xmlns="http://www.w3.org/2000/svg" xmlns:xlink="http://www.w3.org/1999/xlink">
    <!-- Generator: Sketch 51.2 (57519) - http://www.bohemiancoding.com/sketch -->
    <title>Group 16</title>
    <desc>Created with Sketch.</desc>
    <defs>
        <path d="M36.1671942,28.0026818 C23.4190288,37.5373636 13.8941367,46.8413182 7.85913669,55.6543636 C2.64111511,63.2745 0.0152877698,70.5565227 0,77.4108409 L0,77.53725 C0.00794964029,80.7404318 0.586438849,83.8497273 1.73791367,86.8553182 C4.1026259,93.0260455 11.8639209,98.9599091 22.5011511,102.72825 C29.3323381,105.148432 39.438777,107.443432 53.1947122,107.443432 C60.6606475,107.443432 69.2028417,106.767205 78.8781655,105.067432 C106.534964,100.209273 137.128237,88.1132727 169.809209,69.1157045 L168.583129,66.9919091 C86.6926619,114.59475 39.7133453,106.222295 23.3150719,100.413614 C15.6167626,97.6866136 6.50708633,92.4615 4.02190647,85.97475 C-10.6384532,47.7096136 81.9332734,2.94422727 82.8707194,2.49688636 L81.8189209,0.280431818 C81.5804317,0.394568182 57.7841007,11.83275 36.1671942,28.0026818" id="path-1"></path>
        <linearGradient x1="0%" y1="50.0001538%" x2="100.000073%" y2="50.0001538%" id="linearGradient-3">
            <stop stop-color="#00F3E8" offset="0%"></stop>
            <stop stop-color="#FFE98A" offset="100%"></stop>
        </linearGradient>
        <path d="M91.0233813,2.49524 C63.3665827,7.33653143 32.7739209,19.3890114 0.0935611511,38.3176171 L1.3202518,40.4343829 C83.2064388,-6.99596571 130.190036,1.34575429 146.586475,7.13231429 C154.284784,9.84950286 163.396295,15.0564286 165.880863,21.51984 C180.541223,59.6466914 87.9694964,104.251629 87.0326619,104.69736 L88.0838489,106.905229 C88.3223381,106.792114 112.118669,95.3950857 133.736187,79.2833314 C146.484353,69.7823429 156.008022,60.5124743 162.043633,51.7311371 C167.252482,44.1512571 169.878309,36.9070514 169.90277,30.0884 L169.90277,29.8860171 C169.889928,26.7090343 169.311439,23.6243771 168.164856,20.6418286 C165.799532,14.4933029 158.038849,8.58017714 147.400396,4.82600571 C140.569209,2.41514286 130.46277,0.127788571 116.706835,0.127788571 C109.240899,0.1284 100.698705,0.802194286 91.0233813,2.49524" id="path-4"></path>
        <linearGradient x1="5.43775746e-06%" y1="50.0001619%" x2="100.000078%" y2="50.0001619%" id="linearGradient-6">
            <stop stop-color="#FFE98A" offset="0%"></stop>
            <stop stop-color="#FF6D81" offset="100%"></stop>
        </linearGradient>
        <polygon id="path-7" points="0.509806098 0.456313819 162.233362 0.456313819 162.233362 274.203566 0.509806098 274.203566"></polygon>
        <polygon id="path-9" points="0.528945993 0.486848737 5.42093206 0.486848737 5.42093206 184.430906 0.528945993 184.430906"></polygon>
    </defs>
    <g id="Page-1" stroke="none" stroke-width="1" fill="none" fill-rule="evenodd">
        <g id="desk" transform="translate(-770.000000, -100.000000)">
            <g id="Group-16" transform="translate(770.000000, 100.000000)">
                <circle id="Oval-3-Copy-2" fill="#973DE6" cx="251" cy="233" r="233"></circle>
                <g id="Group-60" transform="translate(0.000000, 27.000000)">
                    <g id="Group-3" transform="translate(0.000000, 185.000000)">
                        <mask id="mask-2" fill="white">
                            <use xlink:href="#path-1"></use>
                        </mask>
                        <g id="Clip-2"></g>
                        <path d="M36.1671942,28.0026818 C23.4190288,37.5373636 13.8941367,46.8413182 7.85913669,55.6543636 C2.64111511,63.2745 0.0152877698,70.5565227 0,77.4108409 L0,77.53725 C0.00794964029,80.7404318 0.586438849,83.8497273 1.73791367,86.8553182 C4.1026259,93.0260455 11.8639209,98.9599091 22.5011511,102.72825 C29.3323381,105.148432 39.438777,107.443432 53.1947122,107.443432 C60.6606475,107.443432 69.2028417,106.767205 78.8781655,105.067432 C106.534964,100.209273 137.128237,88.1132727 169.809209,69.1157045 L168.583129,66.9919091 C86.6926619,114.59475 39.7133453,106.222295 23.3150719,100.413614 C15.6167626,97.6866136 6.50708633,92.4615 4.02190647,85.97475 C-10.6384532,47.7096136 81.9332734,2.94422727 82.8707194,2.49688636 L81.8189209,0.280431818 C81.5804317,0.394568182 57.7841007,11.83275 36.1671942,28.0026818" id="Fill-1" fill="url(#linearGradient-3)" mask="url(#mask-2)"></path>
                    </g>
                    <g id="Group-6" transform="translate(330.000000, 122.000000)">
                        <mask id="mask-5" fill="white">
                            <use xlink:href="#path-4"></use>
                        </mask>
                        <g id="Clip-5"></g>
                        <path d="M91.0233813,2.49524 C63.3665827,7.33653143 32.7739209,19.3890114 0.0935611511,38.3176171 L1.3202518,40.4343829 C83.2064388,-6.99596571 130.190036,1.34575429 146.586475,7.13231429 C154.284784,9.84950286 163.396295,15.0564286 165.880863,21.51984 C180.541223,59.6466914 87.9694964,104.251629 87.0326619,104.69736 L88.0838489,106.905229 C88.3223381,106.792114 112.118669,95.3950857 133.736187,79.2833314 C146.484353,69.7823429 156.008022,60.5124743 162.043633,51.7311371 C167.252482,44.1512571 169.878309,36.9070514 169.90277,30.0884 L169.90277,29.8860171 C169.889928,26.7090343 169.311439,23.6243771 168.164856,20.6418286 C165.799532,14.4933029 158.038849,8.58017714 147.400396,4.82600571 C140.569209,2.41514286 130.46277,0.127788571 116.706835,0.127788571 C109.240899,0.1284 100.698705,0.802194286 91.0233813,2.49524" id="Fill-4" fill="url(#linearGradient-6)" mask="url(#mask-5)"></path>
                    </g>
                    <g id="Group-59" transform="translate(75.000000, 0.000000)">
                        <polyline id="Fill-7" fill="#00F3E8" points="168.951893 184.098931 7.72059355 277.488146 8.34921376 96.8411269 169.443538 3.45191144"></polyline>
                        <polygon id="Fill-9" fill="#FFFFFF" points="159.544726 149.103655 17.4857315 231.458162 17.832451 103.942511 159.890834 21.588004"></polygon>
                        <path d="M119.037736,82.0687609 C118.560768,81.870284 117.844092,82.2281532 117.307196,82.9579377 L110.980635,91.5913805 C110.921932,91.6255796 110.921932,91.6854281 110.980635,91.7104667 L114.083989,93.0607208 C114.143916,93.0857594 114.143916,93.025911 114.203843,92.9917119 L119.097663,83.7622275 C119.514705,82.9829764 119.456001,82.3026584 119.037736,82.0687609 M74.1592678,156.55503 L70.9965988,155.477147 L64.3722382,165.893219 C62.1048026,169.479239 59.1206911,171.813939 56.8526441,170.810562 C55.301273,170.165664 56.016726,166.768349 58.2254577,163.15729 C59.0008375,161.871159 59.1800064,160.514798 58.4633305,160.038453 C57.6280239,159.452183 56.1365796,160.261969 55.1814193,161.772226 C55.1814193,161.772226 53.5701214,164.677929 53.033226,166.242538 C51.4812434,170.662773 51.3020744,174.104669 54.0477016,175.306523 C56.016726,176.12608 58.5831841,175.465305 61.2095692,173.696112 C63.4170779,172.231046 65.3867138,170.010547 66.9974002,167.581189 C66.9980117,167.581189 74.1592678,156.55503 74.1592678,156.55503" id="Fill-11" fill="#FF6D82"></path>
                        <polygon id="Fill-13" fill="#FF6D82" points="74.1595124 156.554908 70.9962319 155.477025 96.8375368 114.434431 99.8809636 115.701019"></polygon>
                        <path d="M114.561997,126.337858 C118.918311,128.150411 120.887947,132.247586 119.216722,135.78414 C119.634375,135.182602 120.111955,134.487628 120.529609,133.827463 C132.703928,114.574586 130.436492,93.9036678 115.457231,87.6721016 C100.477969,81.4399248 78.4560826,92.0068386 66.2823753,111.259105 C65.8641105,111.91988 65.5057725,112.545235 65.0887307,113.265859 C67.6545774,110.101831 72.9067359,109.008681 77.2630495,110.820623 C81.5001209,112.583709 83.40983,116.477522 82.0969432,119.924304 C81.8584589,120.599736 81.8584589,121.195778 82.2761122,121.369216 L82.4552812,121.443721 C82.8729345,121.61777 83.4697568,121.329521 84.0066523,120.718822 C86.6923526,117.783195 91.7054153,116.829284 95.9424868,118.59176 C100.179558,120.354235 102.089879,124.248048 100.77638,127.69544 C100.537285,128.370873 100.537285,128.966914 100.955549,129.140353 L101.134718,129.214858 C101.552983,129.388907 102.149194,129.100657 102.68609,128.489348 C105.311863,125.529293 110.384241,124.540573 114.561997,126.337858" id="Fill-15" fill="#3F9BFD"></path>
                        <polygon id="Fill-17" fill="#9DF7F1" points="169.443966 3.54754681 8.35147631 97.0002749 3.45949024 93.5437221 164.551368 0.0909940565"></polygon>
                        <polygon id="Fill-19" fill="#00DBCE" points="3.45924564 93.5438443 3.45924564 274.328271 7.720777 277.488024 8.35123171 97.000397"></polygon>
                        <polygon id="Fill-21" fill="#FFE98B" points="255.692676 251.217918 94.5897915 344.293845 95.088774 163.682857 256.18371 70.5715092"></polygon>
                        <polygon id="Fill-23" fill="#FFFFFF" points="246.284898 216.206519 104.225903 298.314915 104.572011 170.799875 246.631618 88.6914793"></polygon>
                        <path d="M187.922709,210.094162 L165.536981,223.094098 L165.536981,237.415585 C165.536981,239.538373 167.259572,240.258386 169.384528,239.024165 L184.075162,230.493319 C186.200119,229.259708 187.922709,226.539047 187.922709,224.41626 L187.922709,210.094162 Z" id="Fill-25" fill="#00F3E8"></path>
                        <path d="M187.186404,203.535139 C188.509687,193.517854 204.386627,175.048503 204.386627,160.513882 C204.386627,144.742597 192.605502,139.736702 176.856976,148.755496 L176.856976,148.751832 C176.814782,148.77687 176.772589,148.802519 176.729173,148.827558 C176.686979,148.852597 176.644786,148.875193 176.60137,148.900231 L176.60137,148.903285 C160.853455,158.176129 149.072941,176.864109 149.072941,192.634784 C149.072941,207.169405 164.949882,207.199329 166.272552,215.680097 L187.186404,203.535139 Z" id="Fill-27" fill="#00F3E8"></path>
                        <path d="M180.961536,207.150412 C181.497208,197.589929 187.922832,184.609536 187.922832,170.074304 C187.922832,154.303629 183.15498,145.225598 176.781333,148.799405 L176.781333,148.795741 C176.764211,148.806123 176.746478,148.817115 176.729356,148.827497 C176.712234,148.837879 176.695112,148.845818 176.67799,148.8562 L176.67799,148.859253 C170.304344,152.687111 165.536492,167.302955 165.536492,183.07424 C165.536492,197.608861 171.962116,203.127132 172.497788,212.065313 L180.961536,207.150412 Z" id="Fill-29" fill="#FF6D82"></path>
                        <polygon id="Fill-31" fill="#FAEFC3" points="256.313103 70.3533678 95.2206131 163.806707 90.328627 160.350154 251.420505 66.896815"></polygon>
                        <polygon id="Fill-33" fill="#F6D131" points="90.3283824 160.350276 90.3283824 341.134092 94.5899138 344.293845 95.2203685 163.806829"></polygon>
                        <g id="Group-37" transform="translate(181.003484, 136.796434)">
                            <mask id="mask-8" fill="white">
                                <use xlink:href="#path-7"></use>
                            </mask>
                            <g id="Clip-36"></g>
                            <polygon id="Fill-35" fill="#FF6D82" mask="url(#mask-8)" points="161.741717 181.101501 0.509806098 274.203688 1.13842631 93.2800226 162.233362 0.456313819"></polygon>
                        </g>
                        <polygon id="Fill-38" fill="#FFFFFF" points="333.338035 282.869864 191.27904 364.725431 191.625148 237.211001 333.684754 155.355435"></polygon>
                        <path d="M274.651507,297.290468 C283.641755,297.063899 287.140136,287.888156 287.140136,287.888156 L282.500087,277.414679 C280.469913,279.422655 278.204312,281.186963 275.829864,282.561645 L273.201645,284.082895 C270.936044,285.394675 268.778678,286.227057 266.802927,286.610575 L262.198957,302.327508 C262.198957,302.327508 265.697338,307.434779 274.651507,297.290468" id="Fill-40" fill="#00F3E8"></path>
                        <path d="M278.095343,218.453096 C275.250042,220.10076 275.250042,215.684189 278.095343,214.036525 C280.959601,212.378479 280.940645,216.806042 278.095343,218.453096 Z M258.827645,277.398312 C258.827645,282.683907 262.398183,285.159678 267.491963,284.184393 C269.250021,283.836295 271.171348,283.104067 273.183789,281.939466 L275.812009,280.418216 C277.950418,279.17972 279.962859,277.598622 281.77534,275.806833 C286.722972,270.914528 290.16693,264.449675 290.16693,259.254464 L293.28496,232.269535 C293.28496,228.033732 290.982669,225.600709 287.448209,225.311849 L287.448209,224.04465 L287.448209,222.795772 L287.448209,217.510177 C287.448209,210.468214 281.73865,208.053513 274.669118,212.145803 C273.980571,212.544589 273.310369,212.987345 272.657289,213.473461 C272.657289,213.70858 272.621822,213.983394 272.549054,214.260651 C272.530709,214.325385 270.80873,220.662602 272.784481,223.266009 C273.636298,224.383587 275.068427,224.640691 277.134679,224.041596 C277.787148,223.844951 278.312425,224.047703 278.548463,224.545422 C278.711733,224.84894 278.730078,225.290474 278.62062,225.769873 C278.566808,226.036748 278.457962,226.317058 278.331382,226.58943 L278.059265,227.163486 L277.352373,228.659087 L274.579228,234.499806 C274.162186,235.357226 273.491984,236.107164 272.766136,236.527324 C272.603477,236.621372 272.457941,236.687327 272.295282,236.745344 C268.706399,238.008268 265.225751,239.407989 261.908984,240.876107 C261.600789,241.000079 261.292594,241.141761 260.98501,241.284054 C257.957483,245.389779 256.053889,249.967574 256.053889,253.822913 L258.827645,277.398312 Z" id="Fill-42" fill="#C07DEE"></path>
                        <path d="M250.543922,244.504389 C253.53476,242.773059 256.81606,241.072874 260.422677,239.401393 C260.911875,239.172381 261.401685,238.943369 261.909229,238.721686 C261.963652,238.689929 262.035809,238.666112 262.090232,238.634967 C262.688278,238.360763 263.304668,238.094499 263.921058,237.828234 C266.694203,236.639204 269.630617,235.482542 272.76638,234.372903 L274.77821,230.148702 L275.485102,228.653712 L276.191994,227.158112 L276.536879,226.433824 C267.70929,228.973718 269.702774,218.171075 270.355243,215.38568 C270.446356,214.989337 270.518513,214.748111 270.518513,214.748111 C270.518513,214.748111 269.666696,215.204913 268.180755,216.065998 C258.555772,221.63801 222.50367,243.830178 221.162043,264.247656 C220.763346,270.289906 220.310225,272.561093 220.799424,272.27834 C221.923358,271.627335 227.923379,257.582494 250.543922,244.504389" id="Fill-44" fill="#FFE98B"></path>
                        <polygon id="Fill-46" fill="#FF9BAD" points="343.236663 137.059095 182.144173 230.512434 177.252187 227.055881 338.344677 133.602542"></polygon>
                        <g id="Group-50" transform="translate(176.722997, 226.569094)">
                            <mask id="mask-10" fill="white">
                                <use xlink:href="#path-9"></use>
                            </mask>
                            <g id="Clip-49"></g>
                            <polygon id="Fill-48" fill="#FF4B6D" mask="url(#mask-10)" points="0.528945993 0.486848737 0.528945993 181.271275 4.79047735 184.431029 5.42093206 3.94340149"></polygon>
                        </g>
                        <path d="M101.853718,253.380401 C101.853718,257.387193 98.6017704,260.634887 94.5897303,260.634887 C90.5783017,260.634887 87.3257425,257.387193 87.3257425,253.380401 C87.3257425,249.373609 90.5783017,246.125915 94.5897303,246.125915 C98.6017704,246.125915 101.853718,249.373609 101.853718,253.380401" id="Fill-51" fill="#FFFFFF"></path>
                        <path d="M15.0036601,187.034375 C15.0036601,191.041167 11.7517124,194.28886 7.7396723,194.28886 C3.72824373,194.28886 0.475684495,191.041167 0.475684495,187.034375 C0.475684495,183.027583 3.72824373,179.779889 7.7396723,179.779889 C11.7517124,179.779889 15.0036601,183.027583 15.0036601,187.034375" id="Fill-53" fill="#FFFFFF"></path>
                        <path d="M350.500589,227.366116 C350.500589,231.372908 347.248642,234.620602 343.236602,234.620602 C339.225173,234.620602 335.972614,231.372908 335.972614,227.366116 C335.972614,223.359324 339.225173,220.11163 343.236602,220.11163 C347.248642,220.11163 350.500589,223.359324 350.500589,227.366116" id="Fill-55" fill="#FFFFFF"></path>
                        <path d="M263.317876,161.526359 C263.317876,165.533151 260.065929,168.780845 256.053889,168.780845 C252.04246,168.780845 248.789901,165.533151 248.789901,161.526359 C248.789901,157.519567 252.04246,154.271873 256.053889,154.271873 C260.065929,154.271873 263.317876,157.519567 263.317876,161.526359" id="Fill-57" fill="#FFFFFF"></path>
                    </g>
                </g>
            </g>
        </g>
    </g>
</svg>