<?xml version="1.0" standalone="no"?>
<!DOCTYPE svg PUBLIC "-//W3C//DTD SVG 20010904//EN"
 "http://www.w3.org/TR/2001/REC-SVG-20010904/DTD/svg10.dtd">
<svg version="1.0" xmlns="http://www.w3.org/2000/svg"
 width="120.000000pt" height="120.000000pt" viewBox="0 0 120.000000 120.000000"
 preserveAspectRatio="xMidYMid meet">
<metadata>
Created by potrace 1.13, written by Peter Selinger 2001-2015
</metadata>
<g transform="translate(0.000000,120.000000) scale(0.100000,-0.100000)"
fill="#000000" stroke="none">
<path d="M430 1155 l44 -45 -64 -65 -64 -65 -173 0 -173 0 0 -30 0 -30 142 0
143 0 -117 -117 -117 -117 -26 24 -25 23 0 -40 c0 -29 6 -46 25 -63 l26 -24
157 157 157 157 107 0 108 0 -8 -32 c-16 -71 -7 -220 17 -290 72 -212 259
-357 482 -375 102 -8 129 -1 129 35 l0 28 -68 -4 c-312 -18 -567 281 -501 588
l11 50 279 0 279 0 0 30 0 30 -265 0 c-146 0 -265 2 -265 5 0 3 12 24 26 46
31 50 102 122 146 149 l33 20 -56 0 c-55 0 -57 -1 -106 -53 -28 -30 -65 -79
-83 -110 l-32 -57 -86 0 -87 1 68 62 67 62 -48 48 c-40 40 -54 47 -87 47 l-39
0 44 -45z"/>
<path d="M0 570 l0 -30 100 0 100 0 0 -220 0 -220 150 0 150 0 0 -50 c0 -49 1
-50 30 -50 l30 0 0 300 0 300 -280 0 -280 0 0 -30z m500 -220 l0 -190 -120 0
-120 0 0 190 0 190 120 0 120 0 0 -190z"/>
</g>
</svg>
