<svg xmlns="http://www.w3.org/2000/svg" xmlns:xlink="http://www.w3.org/1999/xlink" preserveAspectRatio="xMidYMid" width="16.406" height="56.78" viewBox="0 0 16.406 56.78">
  <defs>
    <style>
      .cls-1 {
        fill: #fff;
        fill-rule: evenodd;
      }
    </style>
  </defs>
  <path d="M2.000,26.370 L14.000,26.370 C14.763,26.370 16.000,27.604 16.000,28.370 C16.000,29.137 14.763,30.370 14.000,30.370 L2.000,30.370 C1.239,30.370 0.000,29.137 0.000,28.370 C0.000,27.604 1.239,26.370 2.000,26.370 ZM13.000,44.370 C13.539,43.831 15.458,43.828 16.000,44.370 C16.542,44.912 16.539,46.831 16.000,47.370 L7.000,56.370 C6.462,56.909 4.542,56.912 4.000,56.370 C3.458,55.828 3.462,53.909 4.000,53.370 L13.000,44.370 ZM13.000,12.370 L4.000,3.370 C3.462,2.832 3.458,0.912 4.000,0.370 C4.542,-0.172 6.462,-0.168 7.000,0.370 L16.000,9.370 C16.539,9.909 16.542,11.828 16.000,12.370 C15.458,12.912 13.539,12.909 13.000,12.370 Z" class="cls-1"/>
</svg>
