<?xml version="1.0" standalone="no"?>
<!DOCTYPE svg PUBLIC "-//W3C//DTD SVG 20010904//EN"
 "http://www.w3.org/TR/2001/REC-SVG-20010904/DTD/svg10.dtd">
<svg version="1.0" xmlns="http://www.w3.org/2000/svg"
 width="190.000000pt" height="185.000000pt" viewBox="0 0 190.000000 185.000000"
 preserveAspectRatio="xMidYMid meet">
<metadata>
Created by potrace 1.13, written by Peter Selinger 2001-2015
</metadata>
<g transform="translate(0.000000,185.000000) scale(0.100000,-0.100000)"
fill="#000000" stroke="none">
<path d="M37 1812 l-38 -39 81 -79 c45 -43 87 -80 93 -82 7 -1 28 13 47 33
l34 35 -84 85 c-47 47 -87 85 -90 85 -3 0 -23 -17 -43 -38z"/>
<path d="M1730 1765 l-85 -85 40 -40 40 -40 85 85 85 85 -40 40 -40 40 -85
-85z"/>
<path d="M90 165 l-85 -85 40 -40 40 -40 85 85 85 85 -40 40 -40 40 -85 -85z"/>
<path d="M1680 205 l-34 -35 87 -88 87 -87 41 41 40 41 -81 79 c-45 43 -87 80
-93 82 -7 1 -28 -13 -47 -33z"/>
</g>
</svg>
