<svg xmlns="http://www.w3.org/2000/svg" xmlns:xlink="http://www.w3.org/1999/xlink" version="1.1" x="0px" y="0px" viewBox="0 0 100 125" enable-background="new 0 0 100 100" xml:space="preserve"><path fill="currentColor" d="M69.7,53.7V13.4c0-3.6-2.9-6.4-6.4-6.4s-6.4,2.9-6.4,6.4v19.4c-1-0.6-2.2-1-3.4-1c-3,0-5.6,2.1-6.2,4.9  c-1-0.7-2.3-1.1-3.6-1.1c-1.3,0-2.5,0.4-3.5,1V24.4c0-3.5-2.9-6.4-6.4-6.4c-3.5,0-6.4,2.9-6.4,6.4l0,38.2c0,12.9,2.2,18.5,3.8,22.5  c0.9,2.3,1.6,4,1.6,6.4c0,0.8,0.7,1.5,1.5,1.5s1.5-0.7,1.5-1.5c0-3-0.8-5.1-1.8-7.5c-1.5-3.8-3.6-9.1-3.6-21.4l0-38.2  c0-1.9,1.5-3.4,3.4-3.4s3.4,1.5,3.4,3.4l0,33.1c0,3.6,2.9,6.4,6.4,6.4s6.4-2.9,6.4-6.4v-0.7c1.8,2.2,4.7,3.6,8.5,4.7V64  c-7,1.2-9.3,10.3-9.4,10.7c-0.2,0.8,0.3,1.6,1.1,1.8c0.8,0.2,1.6-0.3,1.8-1.1c0-0.1,2.1-8.5,8-8.5c0.8,0,1.5-0.7,1.5-1.5v-5  c0-0.7-0.4-1.3-1.1-1.4c-3.7-1.1-7.3-2.4-8.6-4.8c-0.7-1.3-0.8-3-0.3-5.1l13,3.3c0.4,0.2,1.5,1.2,2.5,2.8c0,0,0,0,0,0.1  c1.4,2.2,2.8,5.4,2.9,9.3c0,12.3-2.7,16.6-4.8,20c-1.3,2.1-2.5,4.1-2.5,7.2c0,0.8,0.7,1.5,1.5,1.5s1.5-0.7,1.5-1.5  c0-2.3,0.8-3.6,2.1-5.6c2.2-3.6,5.2-8.5,5.2-21.6C72.8,60.2,71.4,56.5,69.7,53.7z M46.9,57.4c0,1.9-1.5,3.4-3.4,3.4S40,59.3,40,57.4  V42c0-1.9,1.5-3.4,3.4-3.4s3.4,1.5,3.4,3.4v10.6V57.4z M50.7,45.7c-0.3-0.1-0.6-0.1-0.8,0V42v-3.8c0-1.9,1.5-3.4,3.4-3.4  s3.4,1.5,3.4,3.4v8.9L50.7,45.7z M65.2,49.3l-5.4-1.4v-9.7V13.4c0-1.9,1.5-3.4,3.4-3.4s3.4,1.5,3.4,3.4v36.7  C66.2,49.7,65.7,49.4,65.2,49.3z"/></svg>