<svg xmlns="http://www.w3.org/2000/svg" xmlns:xlink="http://www.w3.org/1999/xlink" preserveAspectRatio="xMidYMid" width="40" height="66" viewBox="0 0 40 66">
  <defs>
    <style>
      .cls-1 {
        fill: #0076fe;
        fill-rule: evenodd;
      }
    </style>
  </defs>
  <path d="M34.000,66.000 L6.000,66.000 C2.424,66.000 -0.000,63.567 -0.000,60.000 L-0.000,6.000 C-0.000,2.434 2.422,-0.000 6.000,-0.000 L34.000,-0.000 C37.573,-0.000 40.000,2.434 40.000,6.000 L40.000,60.000 C40.000,63.567 37.573,66.000 34.000,66.000 ZM34.000,6.000 L6.000,6.000 L6.000,60.000 L34.000,60.000 L34.000,6.000 ZM13.000,10.000 L21.000,10.000 C21.765,10.000 23.000,10.294 23.000,12.000 C23.000,13.705 21.765,14.000 21.000,14.000 L13.000,14.000 C12.235,14.000 11.000,13.560 11.000,12.000 C11.000,10.439 12.235,10.000 13.000,10.000 ZM20.000,47.000 C22.656,47.000 25.000,49.353 25.000,52.000 C25.000,54.647 22.656,57.000 20.000,57.000 C17.346,57.000 15.000,54.647 15.000,52.000 C15.000,49.353 17.346,47.000 20.000,47.000 ZM20.000,54.000 C21.128,54.000 22.000,53.124 22.000,52.000 C22.000,50.877 21.128,50.000 20.000,50.000 C18.874,50.000 18.000,50.877 18.000,52.000 C18.000,53.124 18.874,54.000 20.000,54.000 ZM27.000,10.000 C27.762,10.000 29.000,11.236 29.000,12.000 C29.000,12.763 27.762,14.000 27.000,14.000 C26.238,14.000 25.000,12.763 25.000,12.000 C25.000,11.236 26.238,10.000 27.000,10.000 Z" class="cls-1"/>
</svg>
