<svg xmlns="http://www.w3.org/2000/svg" xmlns:xlink="http://www.w3.org/1999/xlink" preserveAspectRatio="xMidYMid" width="104" height="66" viewBox="0 0 104 66">
  <defs>
    <style>
      .cls-1 {
        fill: #0076fe;
        fill-rule: evenodd;
      }
    </style>
  </defs>
  <path d="M9.000,-0.000 C7.352,-0.000 6.000,1.344 6.000,3.000 L6.000,36.000 L3.000,36.000 C1.352,36.000 -0.000,37.344 -0.000,39.000 L-0.000,63.000 C-0.000,64.655 1.352,66.000 3.000,66.000 L15.000,66.000 C16.648,66.000 18.000,64.655 18.000,63.000 L18.000,54.000 L68.000,54.000 L68.000,63.000 C68.000,64.657 69.354,66.000 71.000,66.000 L101.000,66.000 C102.649,66.000 104.000,64.657 104.000,63.000 L104.000,33.000 C104.000,31.343 102.649,30.000 101.000,30.000 L94.000,30.000 L94.000,3.000 C94.000,1.344 92.646,-0.000 91.000,-0.000 L9.000,-0.000 ZM12.000,6.000 L88.000,6.000 L88.000,30.000 L71.140,29.991 C69.494,29.991 68.156,31.334 68.156,32.990 L68.000,48.000 L18.000,48.000 L18.000,39.000 C18.000,37.344 16.648,36.000 15.000,36.000 L12.000,36.000 L12.000,6.000 ZM74.124,35.989 L98.000,36.000 L98.000,60.000 L74.000,60.000 L74.124,35.989 L74.124,35.989 ZM6.000,42.000 L12.000,42.000 L12.000,60.000 L6.000,60.000 L6.000,42.000 ZM45.000,60.000 C43.352,59.976 42.024,61.345 42.000,63.000 C41.977,64.654 43.352,65.976 45.000,66.000 C45.029,66.000 45.486,65.947 45.000,66.000 L57.000,66.000 C58.646,66.023 59.977,64.657 60.000,63.000 C60.023,61.342 58.649,60.023 57.000,60.000 C56.974,60.000 56.652,59.979 56.626,59.979 L45.000,60.000 Z" class="cls-1"/>
</svg>
