<?xml version="1.0" standalone="no"?>
<!DOCTYPE svg PUBLIC "-//W3C//DTD SVG 20010904//EN"
 "http://www.w3.org/TR/2001/REC-SVG-20010904/DTD/svg10.dtd">
<svg version="1.0" xmlns="http://www.w3.org/2000/svg"
 width="120.000000pt" height="120.000000pt" viewBox="0 0 120.000000 120.000000"
 preserveAspectRatio="xMidYMid meet">
<metadata>
Created by potrace 1.13, written by Peter Selinger 2001-2015
</metadata>
<g transform="translate(0.000000,120.000000) scale(0.100000,-0.100000)"
fill="#000000" stroke="none">
<path d="M1045 1171 l-50 -26 -295 3 c-319 2 -374 -3 -454 -46 -97 -53 -251
-264 -244 -335 3 -30 6 -26 61 66 75 125 160 217 229 248 52 24 57 24 336 21
362 -3 419 6 517 82 19 15 18 15 -15 14 -19 0 -57 -13 -85 -27z"/>
<path d="M1139 1096 c-107 -64 -118 -65 -519 -56 -173 4 -189 3 -245 -18 -112
-42 -162 -92 -270 -266 -26 -44 -61 -94 -77 -111 -16 -19 -28 -44 -28 -61 l0
-27 27 24 c14 13 63 81 109 150 131 201 168 234 299 265 63 15 93 15 285 4
254 -14 308 -8 410 46 57 29 70 41 70 60 0 13 -1 24 -2 24 -2 -1 -28 -16 -59
-34z"/>
<path d="M1100 906 c-124 -56 -164 -82 -257 -167 -116 -106 -199 -166 -288
-209 -115 -54 -297 -110 -391 -120 -111 -12 -164 -28 -164 -52 0 -21 8 -22 46
-8 14 6 69 15 120 20 61 6 135 24 212 49 228 77 295 116 492 290 80 71 126
103 195 136 49 23 100 46 113 50 15 4 22 14 22 31 0 13 -1 24 -2 23 -2 0 -46
-19 -98 -43z"/>
<path d="M522 919 c-138 -18 -258 -102 -318 -224 -64 -130 -56 -205 24 -205
100 0 434 173 540 280 55 55 62 84 30 116 -38 39 -139 51 -276 33z m232 -49
c33 -12 33 -22 -5 -65 -76 -86 -409 -264 -502 -268 l-42 -2 1 36 c2 52 54 157
100 202 51 50 150 98 221 108 68 9 190 4 227 -11z"/>
<path d="M1143 780 c-72 -32 -178 -105 -252 -174 -75 -68 -200 -155 -286 -198
-95 -49 -275 -98 -425 -117 -142 -19 -180 -30 -180 -53 0 -16 4 -19 23 -14 12
4 58 11 102 17 137 18 316 59 407 93 140 53 239 118 460 304 31 26 91 65 132
87 50 27 76 46 76 58 0 21 -5 21 -57 -3z"/>
<path d="M1124 641 c-33 -21 -104 -79 -157 -129 -224 -210 -453 -314 -777
-351 -47 -5 -109 -15 -137 -21 -45 -10 -53 -15 -53 -34 l0 -22 77 17 c43 10
121 23 173 29 125 16 321 70 409 114 108 53 241 149 352 252 55 51 120 105
144 120 28 16 45 33 45 45 0 27 -9 24 -76 -20z"/>
<path d="M1159 527 c-78 -48 -139 -115 -139 -152 0 -38 33 -57 110 -63 65 -4
70 -3 70 15 0 18 -8 21 -65 25 -35 2 -68 7 -72 11 -17 17 57 98 123 135 9 5
14 18 12 30 l-3 21 -36 -22z"/>
<path d="M885 253 c-11 -3 -69 -29 -130 -58 -127 -61 -306 -122 -485 -165
l-125 -30 110 3 c102 3 121 7 265 56 85 29 202 75 260 104 l105 52 158 -1
c143 -2 157 0 157 16 0 14 -13 18 -82 23 -92 8 -202 7 -233 0z"/>
<path d="M905 107 c-16 -7 -50 -23 -75 -36 -25 -13 -70 -35 -100 -47 l-55 -23
53 -1 c43 0 68 8 131 41 l78 40 132 -3 c127 -3 132 -2 129 17 -3 19 -11 20
-133 22 -82 1 -141 -3 -160 -10z"/>
</g>
</svg>
