<svg xmlns="http://www.w3.org/2000/svg" xmlns:xlink="http://www.w3.org/1999/xlink" preserveAspectRatio="xMidYMid" width="252" height="56.78" viewBox="0 0 252 56.78">
  <defs>
    <style>
      .cls-1 {
        fill: #0076fe;
        fill-rule: evenodd;
      }
    </style>
  </defs>
  <path d="M250.000,30.370 L238.000,30.370 C237.237,30.370 236.000,29.136 236.000,28.370 C236.000,27.603 237.237,26.370 238.000,26.370 L250.000,26.370 C250.761,26.370 252.000,27.603 252.000,28.370 C252.000,29.136 250.761,30.370 250.000,30.370 ZM239.000,12.370 C238.461,12.909 236.542,12.912 236.000,12.370 C235.458,11.828 235.461,9.909 236.000,9.370 L245.000,0.370 C245.538,-0.169 247.458,-0.172 248.000,0.370 C248.542,0.912 248.538,2.831 248.000,3.370 L239.000,12.370 ZM7.000,56.370 C6.461,56.909 4.542,56.912 4.000,56.370 C3.458,55.828 3.461,53.909 4.000,53.370 L13.000,44.370 C13.538,43.831 15.458,43.828 16.000,44.370 C16.542,44.912 16.538,46.831 16.000,47.370 L7.000,56.370 ZM13.000,12.370 L4.000,3.370 C3.461,2.830 3.458,0.912 4.000,0.370 C4.542,-0.172 6.461,-0.170 7.000,0.370 L16.000,9.370 C16.538,9.908 16.542,11.828 16.000,12.370 C15.458,12.912 13.538,12.908 13.000,12.370 ZM16.000,28.370 C16.000,29.136 14.761,30.370 14.000,30.370 L2.000,30.370 C1.237,30.370 -0.000,29.136 -0.000,28.370 C-0.000,27.603 1.237,26.370 2.000,26.370 L14.000,26.370 C14.761,26.370 16.000,27.603 16.000,28.370 ZM239.000,44.370 L248.000,53.370 C248.538,53.908 248.542,55.828 248.000,56.370 C247.458,56.912 245.538,56.908 245.000,56.370 L236.000,47.370 C235.461,46.830 235.458,44.912 236.000,44.370 C236.542,43.828 238.461,43.830 239.000,44.370 Z" class="cls-1"/>
</svg>
