<svg xmlns="http://www.w3.org/2000/svg" xmlns:xlink="http://www.w3.org/1999/xlink" preserveAspectRatio="xMidYMid" width="16.375" height="56.781" viewBox="0 0 16.375 56.781">
  <defs>
    <style>
      .cls-1 {
        fill: #fff;
        fill-rule: evenodd;
      }
    </style>
  </defs>
  <path d="M14.375,30.375 L2.375,30.375 C1.612,30.375 0.375,29.141 0.375,28.375 C0.375,27.608 1.612,26.375 2.375,26.375 L14.375,26.375 C15.136,26.375 16.375,27.608 16.375,28.375 C16.375,29.141 15.136,30.375 14.375,30.375 ZM3.375,12.375 C2.836,12.914 0.917,12.917 0.375,12.375 C-0.167,11.833 -0.164,9.914 0.375,9.375 L9.375,0.375 C9.913,-0.164 11.833,-0.167 12.375,0.375 C12.917,0.917 12.913,2.836 12.375,3.375 L3.375,12.375 ZM3.375,44.375 L12.375,53.375 C12.913,53.913 12.917,55.833 12.375,56.375 C11.833,56.917 9.913,56.913 9.375,56.375 L0.375,47.375 C-0.164,46.836 -0.167,44.917 0.375,44.375 C0.917,43.833 2.836,43.836 3.375,44.375 Z" class="cls-1"/>
</svg>
