<?xml version="1.0" standalone="no"?>
<!DOCTYPE svg PUBLIC "-//W3C//DTD SVG 20010904//EN"
 "http://www.w3.org/TR/2001/REC-SVG-20010904/DTD/svg10.dtd">
<svg version="1.0" xmlns="http://www.w3.org/2000/svg"
 width="120.000000pt" height="120.000000pt" viewBox="0 0 120.000000 120.000000"
 preserveAspectRatio="xMidYMid meet">
<metadata>
Created by potrace 1.13, written by Peter Selinger 2001-2015
</metadata>
<g transform="translate(0.000000,120.000000) scale(0.100000,-0.100000)"
fill="#000000" stroke="none">
<path d="M380 1133 c-16 -96 -54 -169 -124 -239 -65 -64 -144 -109 -215 -120
-37 -6 -41 -9 -41 -35 0 -36 21 -38 105 -9 81 28 136 62 195 120 80 81 130
183 144 298 l7 52 -30 0 c-28 0 -29 -2 -41 -67z"/>
<path d="M530 1036 l0 -165 125 -3 125 -3 -245 -245 -245 -245 0 133 0 132
-145 0 -145 0 0 -25 c0 -24 0 -24 112 -27 l113 -3 3 -187 2 -188 -115 0 -115
0 0 -30 0 -30 145 0 145 0 0 112 0 113 188 -188 c180 -180 189 -187 227 -187
l40 0 -183 183 c-100 100 -182 187 -182 192 0 13 392 405 405 405 6 0 100 -90
210 -200 l200 -200 -190 -190 -190 -190 45 0 c44 0 46 1 192 147 l148 148 0
80 0 80 -207 207 -208 208 208 0 207 0 0 165 c0 158 -1 165 -20 165 -19 0 -20
-7 -20 -135 l0 -135 -190 0 -190 0 0 135 0 135 -30 0 -30 0 0 -135 0 -136 -66
3 -66 3 -1 130 -2 130 -27 3 -28 3 0 -165z"/>
</g>
</svg>
