<svg xmlns="http://www.w3.org/2000/svg" xmlns:xlink="http://www.w3.org/1999/xlink" preserveAspectRatio="xMidYMid" width="98" height="66" viewBox="0 0 98 66">
  <defs>
    <style>
      .cls-1 {
        fill: #fff;
        fill-rule: evenodd;
      }
    </style>
  </defs>
  <path d="M95.000,34.000 L91.000,34.000 L91.000,30.000 C91.000,27.376 89.730,26.000 87.000,26.000 L81.000,26.000 C78.273,26.000 77.000,27.376 77.000,30.000 L77.000,34.000 L75.000,34.000 L75.000,11.000 C75.000,9.637 73.420,8.000 72.000,8.000 L66.000,8.000 L66.000,4.000 C66.000,1.376 64.727,-0.000 62.000,-0.000 L56.000,-0.000 C53.273,-0.000 52.000,1.376 52.000,4.000 L52.000,8.000 L46.000,8.000 L46.000,4.000 C46.000,1.376 44.729,-0.000 42.000,-0.000 L36.000,-0.000 C33.271,-0.000 32.000,1.376 32.000,4.000 L32.000,8.000 L26.000,8.000 C24.583,8.000 23.000,9.637 23.000,11.000 L23.000,34.000 L21.000,34.000 L21.000,30.000 C21.000,27.376 19.729,26.000 17.000,26.000 L11.000,26.000 C8.271,26.000 7.000,27.376 7.000,30.000 L7.000,34.000 L3.000,34.000 C1.583,34.000 -0.000,35.638 -0.000,37.000 L-0.000,63.000 C-0.000,64.361 1.583,66.000 3.000,66.000 L95.000,66.000 C96.417,66.000 98.000,64.361 98.000,63.000 L98.000,37.000 C97.997,35.637 96.417,34.000 95.000,34.000 ZM81.000,30.000 L87.000,30.000 L87.000,34.000 L81.000,34.000 L81.000,30.000 ZM56.000,4.000 L62.000,4.000 L62.000,8.000 L56.000,8.000 L56.000,4.000 ZM36.000,4.000 L42.000,4.000 L42.000,8.000 L36.000,8.000 L36.000,4.000 ZM29.000,14.000 L69.000,14.000 L69.000,34.000 L29.000,34.000 L29.000,14.000 ZM11.000,30.000 L17.000,30.000 L17.000,34.000 L11.000,34.000 L11.000,30.000 ZM6.000,40.000 L46.000,40.000 L46.000,60.000 L6.000,60.000 L6.000,40.000 ZM92.000,60.000 L52.000,60.000 L52.000,40.000 L92.000,40.000 L92.000,60.000 Z" class="cls-1"/>
</svg>
