<svg id="Слой_1" data-name="Слой 1" xmlns="http://www.w3.org/2000/svg" viewBox="0 0 529 486"><defs><style>.cls-1,.cls-2{fill:#fff;}.cls-1{opacity:0.4;}.cls-2{opacity:0.79;}</style></defs><title>bg</title><g id="_Группа_" data-name="&lt;Группа&gt;"><polygon id="_Контур_" data-name="&lt;Контур&gt;" class="cls-1" points="96.42 27.07 96.9 28.03 97.97 28.19 97.2 28.94 97.38 30 96.42 29.5 95.47 30 95.65 28.94 94.88 28.19 95.95 28.03 96.42 27.07"/><polygon id="_Контур_2" data-name="&lt;Контур&gt;" class="cls-1" points="299.69 269.06 300.17 270.02 301.24 270.18 300.47 270.93 300.65 271.99 299.69 271.49 298.74 271.99 298.92 270.93 298.15 270.18 299.22 270.02 299.69 269.06"/><polygon id="_Контур_3" data-name="&lt;Контур&gt;" class="cls-1" points="70.06 92.27 70.54 93.23 71.6 93.39 70.83 94.14 71.02 95.2 70.06 94.7 69.11 95.2 69.29 94.14 68.52 93.39 69.58 93.23 70.06 92.27"/><polygon id="_Контур_4" data-name="&lt;Контур&gt;" class="cls-1" points="453.61 16.74 454.09 17.71 455.16 17.86 454.39 18.61 454.57 19.68 453.61 19.18 452.66 19.68 452.84 18.61 452.07 17.86 453.14 17.71 453.61 16.74"/><polygon id="_Контур_5" data-name="&lt;Контур&gt;" class="cls-1" points="428.51 168.87 428.99 169.84 430.06 169.99 429.28 170.74 429.47 171.8 428.51 171.3 427.56 171.8 427.74 170.74 426.97 169.99 428.04 169.84 428.51 168.87"/><polygon id="_Контур_6" data-name="&lt;Контур&gt;" class="cls-1" points="81.36 161.03 81.83 162 82.9 162.15 82.13 162.9 82.31 163.97 81.36 163.46 80.4 163.97 80.58 162.9 79.81 162.15 80.88 162 81.36 161.03"/><polygon id="_Контур_7" data-name="&lt;Контур&gt;" class="cls-1" points="258.73 20.28 259.21 21.25 260.28 21.4 259.5 22.15 259.69 23.21 258.73 22.71 257.78 23.21 257.96 22.15 257.19 21.4 258.26 21.25 258.73 20.28"/><polygon id="_Контур_8" data-name="&lt;Контур&gt;" class="cls-1" points="210.86 49.36 211.34 50.33 212.4 50.48 211.63 51.24 211.81 52.3 210.86 51.8 209.91 52.3 210.09 51.24 209.32 50.48 210.38 50.33 210.86 49.36"/><polygon id="_Контур_9" data-name="&lt;Контур&gt;" class="cls-1" points="464.35 250.78 464.83 251.75 465.89 251.91 465.12 252.66 465.31 253.72 464.35 253.22 463.4 253.72 463.58 252.66 462.81 251.91 463.87 251.75 464.35 250.78"/><polygon id="_Контур_10" data-name="&lt;Контур&gt;" class="cls-1" points="170.03 15.11 170.51 16.07 171.58 16.23 170.81 16.98 170.99 18.04 170.03 17.54 169.08 18.04 169.26 16.98 168.49 16.23 169.56 16.07 170.03 15.11"/><polygon id="_Контур_11" data-name="&lt;Контур&gt;" class="cls-1" points="315.83 40.81 316.31 41.77 317.38 41.93 316.6 42.68 316.79 43.74 315.83 43.24 314.88 43.74 315.06 42.68 314.29 41.93 315.36 41.77 315.83 40.81"/><polygon id="_Контур_12" data-name="&lt;Контур&gt;" class="cls-1" points="271.6 97.02 272.08 97.99 273.14 98.14 272.37 98.9 272.55 99.96 271.6 99.46 270.64 99.96 270.83 98.9 270.06 98.14 271.12 97.99 271.6 97.02"/><polygon id="_Контур_13" data-name="&lt;Контур&gt;" class="cls-1" points="525.36 164.55 525.84 165.52 526.9 165.67 526.13 166.43 526.32 167.49 525.36 166.99 524.41 167.49 524.59 166.43 523.82 165.67 524.89 165.52 525.36 164.55"/><polygon id="_Контур_14" data-name="&lt;Контур&gt;" class="cls-1" points="500.26 316.68 500.74 317.65 501.8 317.8 501.03 318.55 501.21 319.62 500.26 319.11 499.31 319.62 499.49 318.55 498.72 317.8 499.78 317.65 500.26 316.68"/><polygon id="_Контур_15" data-name="&lt;Контур&gt;" class="cls-1" points="330.48 168.09 330.96 169.06 332.02 169.21 331.25 169.96 331.44 171.03 330.48 170.52 329.53 171.03 329.71 169.96 328.94 169.21 330 169.06 330.48 168.09"/><polygon id="_Контур_16" data-name="&lt;Контур&gt;" class="cls-1" points="282.61 197.17 283.08 198.14 284.15 198.29 283.38 199.05 283.56 200.11 282.61 199.61 281.65 200.11 281.83 199.05 281.06 198.29 282.13 198.14 282.61 197.17"/><polygon id="_Контур_17" data-name="&lt;Контур&gt;" class="cls-1" points="241.78 162.92 242.26 163.88 243.32 164.04 242.55 164.79 242.74 165.85 241.78 165.35 240.83 165.85 241.01 164.79 240.24 164.04 241.31 163.88 241.78 162.92"/><polygon id="_Контур_18" data-name="&lt;Контур&gt;" class="cls-1" points="387.58 188.62 388.06 189.58 389.12 189.74 388.35 190.49 388.53 191.55 387.58 191.05 386.63 191.55 386.81 190.49 386.04 189.74 387.1 189.58 387.58 188.62"/><polygon id="_Контур_19" data-name="&lt;Контур&gt;" class="cls-1" points="343.35 244.83 343.82 245.8 344.89 245.96 344.12 246.71 344.3 247.77 343.35 247.27 342.39 247.77 342.57 246.71 341.81 245.96 342.87 245.8 343.35 244.83"/><polygon id="_Контур_20" data-name="&lt;Контур&gt;" class="cls-1" points="286.92 220.66 287.4 221.62 288.47 221.78 287.69 222.53 287.88 223.59 286.92 223.09 285.97 223.59 286.15 222.53 285.38 221.78 286.44 221.62 286.92 220.66"/><polygon id="_Контур_21" data-name="&lt;Контур&gt;" class="cls-1" points="261.82 372.78 262.3 373.75 263.36 373.9 262.59 374.66 262.77 375.72 261.82 375.22 260.87 375.72 261.05 374.66 260.28 373.9 261.35 373.75 261.82 372.78"/><polygon id="_Контур_22" data-name="&lt;Контур&gt;" class="cls-1" points="92.04 224.19 92.52 225.16 93.58 225.31 92.81 226.07 93 227.13 92.04 226.63 91.09 227.13 91.27 226.07 90.5 225.31 91.56 225.16 92.04 224.19"/><polygon id="_Контур_23" data-name="&lt;Контур&gt;" class="cls-1" points="44.17 253.28 44.64 254.24 45.71 254.4 44.94 255.15 45.12 256.21 44.17 255.71 43.21 256.21 43.4 255.15 42.62 254.4 43.69 254.24 44.17 253.28"/><polygon id="_Контур_24" data-name="&lt;Контур&gt;" class="cls-1" points="3.34 219.02 3.82 219.99 4.88 220.14 4.11 220.89 4.3 221.96 3.34 221.45 2.39 221.96 2.57 220.89 1.8 220.14 2.87 219.99 3.34 219.02"/><polygon id="_Контур_25" data-name="&lt;Контур&gt;" class="cls-1" points="267.43 285.47 267.91 286.43 268.98 286.59 268.2 287.34 268.39 288.4 267.43 287.9 266.48 288.4 266.66 287.34 265.89 286.59 266.96 286.43 267.43 285.47"/><polygon id="_Контур_26" data-name="&lt;Контур&gt;" class="cls-1" points="241.07 350.67 241.55 351.63 242.61 351.79 241.84 352.54 242.02 353.6 241.07 353.1 240.12 353.6 240.3 352.54 239.53 351.79 240.59 351.63 241.07 350.67"/><polygon id="_Контур_27" data-name="&lt;Контур&gt;" class="cls-1" points="252.36 419.43 252.84 420.4 253.91 420.55 253.14 421.3 253.32 422.36 252.36 421.86 251.41 422.36 251.59 421.3 250.82 420.55 251.89 420.4 252.36 419.43"/><polygon id="_Контур_28" data-name="&lt;Контур&gt;" class="cls-1" points="381.87 307.76 382.34 308.73 383.41 308.88 382.64 309.63 382.82 310.7 381.87 310.19 380.91 310.7 381.1 309.63 380.32 308.88 381.39 308.73 381.87 307.76"/><polygon id="_Контур_29" data-name="&lt;Контур&gt;" class="cls-1" points="341.04 273.51 341.52 274.47 342.58 274.63 341.81 275.38 342 276.44 341.04 275.94 340.09 276.44 340.27 275.38 339.5 274.63 340.56 274.47 341.04 273.51"/><polygon id="_Контур_30" data-name="&lt;Контур&gt;" class="cls-1" points="74.61 402.64 75.09 403.61 76.16 403.76 75.38 404.51 75.57 405.57 74.61 405.07 73.66 405.57 73.84 404.51 73.07 403.76 74.14 403.61 74.61 402.64"/><polygon id="_Контур_31" data-name="&lt;Контур&gt;" class="cls-1" points="57.52 330.75 58 331.72 59.07 331.88 58.3 332.63 58.48 333.69 57.52 333.19 56.57 333.69 56.75 332.63 55.98 331.88 57.05 331.72 57.52 330.75"/><polygon id="_Контур_32" data-name="&lt;Контур&gt;" class="cls-1" points="61.84 354.24 62.32 355.2 63.38 355.36 62.61 356.11 62.79 357.17 61.84 356.67 60.89 357.17 61.07 356.11 60.3 355.36 61.36 355.2 61.84 354.24"/><polygon id="_Контур_33" data-name="&lt;Контур&gt;" class="cls-1" points="351.79 409.32 352.27 410.28 353.33 410.44 352.56 411.19 352.75 412.25 351.79 411.75 350.84 412.25 351.02 411.19 350.25 410.44 351.32 410.28 351.79 409.32"/><polygon id="_Контур_34" data-name="&lt;Контур&gt;" class="cls-1" points="480.61 309.13 481.09 310.09 482.15 310.25 481.38 311 481.56 312.06 480.61 311.56 479.66 312.06 479.84 311 479.07 310.25 480.13 310.09 480.61 309.13"/><polygon id="_Контур_35" data-name="&lt;Контур&gt;" class="cls-1" points="334.7 337.43 335.18 338.4 336.25 338.56 335.48 339.31 335.66 340.37 334.7 339.87 333.75 340.37 333.93 339.31 333.16 338.56 334.23 338.4 334.7 337.43"/><polygon id="_Контур_36" data-name="&lt;Контур&gt;" class="cls-1" points="439.68 328.88 440.15 329.84 441.22 330 440.45 330.75 440.63 331.81 439.68 331.31 438.72 331.81 438.91 330.75 438.13 330 439.2 329.84 439.68 328.88"/><polygon id="_Контур_37" data-name="&lt;Контур&gt;" class="cls-1" points="339.02 360.92 339.5 361.88 340.56 362.04 339.79 362.79 339.97 363.85 339.02 363.35 338.07 363.85 338.25 362.79 337.48 362.04 338.54 361.88 339.02 360.92"/><polygon id="_Контур_38" data-name="&lt;Контур&gt;" class="cls-2" points="63.1 202.55 64.11 204.6 66.37 204.92 64.74 206.52 65.12 208.77 63.1 207.71 61.08 208.77 61.47 206.52 59.84 204.92 62.09 204.6 63.1 202.55"/><polygon id="_Контур_39" data-name="&lt;Контур&gt;" class="cls-2" points="317.31 151.73 318.32 153.78 320.57 154.11 318.94 155.7 319.33 157.95 317.31 156.89 315.29 157.95 315.67 155.7 314.04 154.11 316.3 153.78 317.31 151.73"/><polygon id="_Контур_40" data-name="&lt;Контур&gt;" class="cls-1" points="49.42 404.62 49.89 405.58 50.96 405.74 50.19 406.49 50.37 407.55 49.42 407.05 48.46 407.55 48.65 406.49 47.87 405.74 48.94 405.58 49.42 404.62"/><polygon id="_Контур_41" data-name="&lt;Контур&gt;" class="cls-1" points="407.87 481.22 408.35 482.18 409.41 482.34 408.64 483.09 408.82 484.15 407.87 483.65 406.92 484.15 407.1 483.09 406.32 482.34 407.39 482.18 407.87 481.22"/><polygon id="_Контур_42" data-name="&lt;Контур&gt;" class="cls-1" points="60.71 473.38 61.19 474.35 62.26 474.5 61.48 475.25 61.66 476.31 60.71 475.81 59.76 476.31 59.94 475.25 59.17 474.5 60.23 474.35 60.71 473.38"/><polygon id="_Контур_43" data-name="&lt;Контур&gt;" class="cls-1" points="250.95 409.37 251.43 410.34 252.5 410.49 251.72 411.25 251.91 412.31 250.95 411.81 250 412.31 250.18 411.25 249.41 410.49 250.48 410.34 250.95 409.37"/><polygon id="_Контур_44" data-name="&lt;Контур&gt;" class="cls-1" points="504.72 476.9 505.19 477.87 506.26 478.02 505.49 478.78 505.67 479.84 504.72 479.34 503.76 479.84 503.95 478.78 503.18 478.02 504.24 477.87 504.72 476.9"/><polygon id="_Контур_45" data-name="&lt;Контур&gt;" class="cls-1" points="309.84 480.44 310.31 481.41 311.38 481.56 310.61 482.31 310.79 483.38 309.84 482.87 308.88 483.38 309.06 482.31 308.29 481.56 309.36 481.41 309.84 480.44"/><polygon id="_Контур_46" data-name="&lt;Контур&gt;" class="cls-1" points="221.14 475.27 221.61 476.23 222.68 476.39 221.91 477.14 222.09 478.2 221.14 477.7 220.18 478.2 220.37 477.14 219.59 476.39 220.66 476.23 221.14 475.27"/><polygon id="_Контур_47" data-name="&lt;Контур&gt;" class="cls-2" points="296.66 464.08 297.67 466.13 299.93 466.46 298.3 468.05 298.68 470.3 296.66 469.24 294.64 470.3 295.03 468.05 293.39 466.46 295.65 466.13 296.66 464.08"/><polygon id="_Контур_48" data-name="&lt;Контур&gt;" class="cls-2" points="307.63 46.43 308.64 48.48 310.9 48.81 309.26 50.4 309.65 52.65 307.63 51.59 305.61 52.65 305.99 50.4 304.36 48.81 306.62 48.48 307.63 46.43"/><polygon id="_Контур_49" data-name="&lt;Контур&gt;" class="cls-2" points="115.58 8.71 116.59 10.75 118.85 11.08 117.21 12.67 117.6 14.92 115.58 13.86 113.56 14.92 113.94 12.67 112.31 11.08 114.57 10.75 115.58 8.71"/><polygon id="_Контур_50" data-name="&lt;Контур&gt;" class="cls-2" points="297.92 333.98 298.93 336.02 301.18 336.35 299.55 337.94 299.94 340.19 297.92 339.13 295.89 340.19 296.28 337.94 294.65 336.35 296.9 336.02 297.92 333.98"/><polygon id="_Контур_51" data-name="&lt;Контур&gt;" class="cls-2" points="512.31 2.03 513.32 4.07 515.58 4.4 513.95 6 514.33 8.24 512.31 7.18 510.29 8.24 510.68 6 509.04 4.4 511.3 4.07 512.31 2.03"/><polygon id="_Контур_52" data-name="&lt;Контур&gt;" class="cls-2" points="522.79 219.97 523.8 222.02 526.06 222.35 524.43 223.94 524.82 226.19 522.79 225.13 520.77 226.19 521.16 223.94 519.53 222.35 521.78 222.02 522.79 219.97"/></g></svg>