<?xml version="1.0" encoding="utf-8"?>
<!-- Generator: Adobe Illustrator 19.0.0, SVG Export Plug-In . SVG Version: 6.00 Build 0)  -->
<svg version="1.1" id="Layer_1" xmlns="http://www.w3.org/2000/svg" xmlns:xlink="http://www.w3.org/1999/xlink" x="0px" y="0px"
	 viewBox="0 0 632 478" style="enable-background:new 0 0 632 478;" xml:space="preserve">
<style type="text/css">
	.st0{opacity:0.4;fill:#FFFFFF;}
</style>
<g id="XMLID_253_">
	<polygon id="XMLID_286_" class="st0" points="149.1,15.4 149.5,16.4 150.6,16.6 149.8,17.3 150,18.4 149.1,17.9 148.1,18.4 
		148.3,17.3 147.5,16.6 148.6,16.4 	"/>
	<polygon id="XMLID_285_" class="st0" points="352.3,257.4 352.8,258.4 353.9,258.6 353.1,259.3 353.3,260.4 352.3,259.9 
		351.4,260.4 351.6,259.3 350.8,258.6 351.9,258.4 	"/>
	<polygon id="XMLID_284_" class="st0" points="506.3,5.1 506.7,6.1 507.8,6.2 507,7 507.2,8 506.3,7.5 505.3,8 505.5,7 504.7,6.2 
		505.8,6.1 	"/>
	<polygon id="XMLID_283_" class="st0" points="481.2,157.2 481.6,158.2 482.7,158.4 481.9,159.1 482.1,160.2 481.2,159.7 
		480.2,160.2 480.4,159.1 479.6,158.4 480.7,158.2 	"/>
	<polygon id="XMLID_282_" class="st0" points="134,149.4 134.5,150.4 135.5,150.5 134.8,151.3 135,152.3 134,151.8 133,152.3 
		133.2,151.3 132.5,150.5 133.5,150.4 	"/>
	<polygon id="XMLID_281_" class="st0" points="263.5,37.7 264,38.7 265,38.9 264.3,39.6 264.5,40.7 263.5,40.2 262.5,40.7 
		262.7,39.6 262,38.9 263,38.7 	"/>
	<polygon id="XMLID_280_" class="st0" points="517,239.2 517.5,240.1 518.5,240.3 517.8,241 517.9,242.1 517,241.6 516,242.1 
		516.2,241 515.5,240.3 516.5,240.1 	"/>
	<polygon id="XMLID_279_" class="st0" points="222.7,3.5 223.2,4.4 224.2,4.6 223.4,5.3 223.6,6.4 222.7,5.9 221.7,6.4 221.9,5.3 
		221.1,4.6 222.2,4.4 	"/>
	<polygon id="XMLID_278_" class="st0" points="368.5,29.2 369,30.1 370,30.3 369.2,31 369.4,32.1 368.5,31.6 367.5,32.1 367.7,31 
		366.9,30.3 368,30.1 	"/>
	<polygon id="XMLID_277_" class="st0" points="324.2,85.4 324.7,86.4 325.8,86.5 325,87.3 325.2,88.3 324.2,87.8 323.3,88.3 
		323.5,87.3 322.7,86.5 323.8,86.4 	"/>
	<polygon id="XMLID_276_" class="st0" points="578,152.9 578.5,153.9 579.5,154 578.8,154.8 579,155.9 578,155.4 577.1,155.9 
		577.2,154.8 576.5,154 577.5,153.9 	"/>
	<polygon id="XMLID_275_" class="st0" points="552.9,305.1 553.4,306 554.4,306.2 553.7,306.9 553.9,308 552.9,307.5 552,308 
		552.1,306.9 551.4,306.2 552.4,306 	"/>
	<polygon id="XMLID_274_" class="st0" points="383.1,156.5 383.6,157.4 384.7,157.6 383.9,158.3 384.1,159.4 383.1,158.9 
		382.2,159.4 382.4,158.3 381.6,157.6 382.6,157.4 	"/>
	<polygon id="XMLID_273_" class="st0" points="335.2,185.5 335.7,186.5 336.8,186.7 336,187.4 336.2,188.5 335.2,188 334.3,188.5 
		334.5,187.4 333.7,186.7 334.8,186.5 	"/>
	<polygon id="XMLID_272_" class="st0" points="294.4,151.3 294.9,152.3 296,152.4 295.2,153.2 295.4,154.2 294.4,153.7 293.5,154.2 
		293.7,153.2 292.9,152.4 293.9,152.3 	"/>
	<polygon id="XMLID_271_" class="st0" points="314.5,361.2 314.9,362.1 316,362.3 315.2,363 315.4,364.1 314.5,363.6 313.5,364.1 
		313.7,363 312.9,362.3 314,362.1 	"/>
	<polygon id="XMLID_270_" class="st0" points="144.7,212.6 145.2,213.5 146.2,213.7 145.5,214.4 145.6,215.5 144.7,215 143.7,215.5 
		143.9,214.4 143.1,213.7 144.2,213.5 	"/>
	<polygon id="XMLID_269_" class="st0" points="96.8,241.6 97.3,242.6 98.4,242.8 97.6,243.5 97.8,244.6 96.8,244.1 95.9,244.6 
		96,243.5 95.3,242.8 96.3,242.6 	"/>
	<polygon id="XMLID_268_" class="st0" points="56,207.4 56.5,208.4 57.5,208.5 56.8,209.3 56.9,210.3 56,209.8 55,210.3 55.2,209.3 
		54.4,208.5 55.5,208.4 	"/>
	<polygon id="XMLID_267_" class="st0" points="320.1,273.8 320.6,274.8 321.6,275 320.8,275.7 321,276.8 320.1,276.3 319.1,276.8 
		319.3,275.7 318.5,275 319.6,274.8 	"/>
	<polygon id="XMLID_266_" class="st0" points="293.7,339 294.2,340 295.3,340.2 294.5,340.9 294.7,342 293.7,341.5 292.8,342 
		292.9,340.9 292.2,340.2 293.2,340 	"/>
	<polygon id="XMLID_265_" class="st0" points="305,407.8 305.5,408.8 306.6,408.9 305.8,409.7 306,410.7 305,410.2 304.1,410.7 
		304.2,409.7 303.5,408.9 304.5,408.8 	"/>
	<polygon id="XMLID_264_" class="st0" points="393.7,261.9 394.2,262.8 395.2,263 394.5,263.7 394.6,264.8 393.7,264.3 392.7,264.8 
		392.9,263.7 392.1,263 393.2,262.8 	"/>
	<polygon id="XMLID_263_" class="st0" points="127.3,391 127.7,392 128.8,392.1 128,392.9 128.2,393.9 127.3,393.4 126.3,393.9 
		126.5,392.9 125.7,392.1 126.8,392 	"/>
	<polygon id="XMLID_262_" class="st0" points="114.5,342.6 115,343.6 116,343.7 115.3,344.5 115.4,345.5 114.5,345 113.5,345.5 
		113.7,344.5 112.9,343.7 114,343.6 	"/>
	<polygon id="XMLID_261_" class="st0" points="404.4,397.7 404.9,398.7 406,398.8 405.2,399.6 405.4,400.6 404.4,400.1 403.5,400.6 
		403.7,399.6 402.9,398.8 404,398.7 	"/>
	<polygon id="XMLID_260_" class="st0" points="387.3,325.8 387.8,326.8 388.9,326.9 388.1,327.7 388.3,328.7 387.3,328.2 
		386.4,328.7 386.6,327.7 385.8,326.9 386.9,326.8 	"/>
	<polygon id="XMLID_259_" class="st0" points="492.3,317.2 492.8,318.2 493.9,318.4 493.1,319.1 493.3,320.2 492.3,319.7 
		491.4,320.2 491.5,319.1 490.8,318.4 491.8,318.2 	"/>
	<polygon id="XMLID_258_" class="st0" points="460.5,469.6 461,470.6 462.1,470.7 461.3,471.5 461.5,472.5 460.5,472 459.6,472.5 
		459.7,471.5 459,470.7 460,470.6 	"/>
	<polygon id="XMLID_257_" class="st0" points="113.4,461.7 113.8,462.7 114.9,462.9 114.1,463.6 114.3,464.7 113.4,464.2 
		112.4,464.7 112.6,463.6 111.8,462.9 112.9,462.7 	"/>
	<polygon id="XMLID_256_" class="st0" points="557.4,465.3 557.8,466.2 558.9,466.4 558.1,467.1 558.3,468.2 557.4,467.7 
		556.4,468.2 556.6,467.1 555.8,466.4 556.9,466.2 	"/>
	<polygon id="XMLID_255_" class="st0" points="362.5,468.8 363,469.8 364,469.9 363.3,470.7 363.4,471.7 362.5,471.2 361.5,471.7 
		361.7,470.7 360.9,469.9 362,469.8 	"/>
	<polygon id="XMLID_254_" class="st0" points="273.8,463.6 274.3,464.6 275.3,464.8 274.6,465.5 274.7,466.6 273.8,466.1 
		272.8,466.6 273,465.5 272.2,464.8 273.3,464.6 	"/>
</g>
</svg>
