<?xml version="1.0" encoding="utf-8"?>
<!-- Generator: Adobe Illustrator 19.0.0, SVG Export Plug-In . SVG Version: 6.00 Build 0)  -->
<svg version="1.1" id="Layer_1" xmlns="http://www.w3.org/2000/svg" xmlns:xlink="http://www.w3.org/1999/xlink" x="0px" y="0px"
	 viewBox="0 0 632 478" style="enable-background:new 0 0 632 478;" xml:space="preserve">
<style type="text/css">
	.st0{opacity:0.4;fill:#FFFFFF;}
	.st1{opacity:0.79;fill:#FFFFFF;}
</style>
<g id="XMLID_233_">
	<polygon id="XMLID_252_" class="st0" points="101.1,95.4 101.6,96.4 102.6,96.5 101.9,97.3 102,98.4 101.1,97.9 100.1,98.4 
		100.3,97.3 99.6,96.5 100.6,96.4 	"/>
	<polygon id="XMLID_251_" class="st0" points="289.8,23.4 290.2,24.4 291.3,24.6 290.5,25.3 290.7,26.4 289.8,25.9 288.8,26.4 
		289,25.3 288.2,24.6 289.3,24.4 	"/>
	<polygon id="XMLID_250_" class="st0" points="418.6,191.8 419.1,192.7 420.2,192.9 419.4,193.6 419.6,194.7 418.6,194.2 
		417.7,194.7 417.8,193.6 417.1,192.9 418.1,192.7 	"/>
	<polygon id="XMLID_249_" class="st0" points="374.4,248 374.9,249 375.9,249.1 375.2,249.9 375.3,250.9 374.4,250.4 373.4,250.9 
		373.6,249.9 372.8,249.1 373.9,249 	"/>
	<polygon id="XMLID_248_" class="st0" points="318,223.8 318.4,224.8 319.5,224.9 318.7,225.7 318.9,226.7 318,226.2 317,226.7 
		317.2,225.7 316.4,224.9 317.5,224.8 	"/>
	<polygon id="XMLID_247_" class="st0" points="412.9,310.9 413.4,311.9 414.4,312 413.7,312.8 413.9,313.9 412.9,313.4 411.9,313.9 
		412.1,312.8 411.4,312 412.4,311.9 	"/>
	<polygon id="XMLID_246_" class="st0" points="88.6,333.9 89,334.9 90.1,335 89.3,335.8 89.5,336.8 88.6,336.3 87.6,336.8 
		87.8,335.8 87,335 88.1,334.9 	"/>
	<polygon id="XMLID_245_" class="st0" points="511.6,312.3 512.1,313.3 513.2,313.4 512.4,314.2 512.6,315.2 511.6,314.7 
		510.7,315.2 510.9,314.2 510.1,313.4 511.2,313.3 	"/>
	<polygon id="XMLID_244_" class="st0" points="370.1,364.1 370.5,365 371.6,365.2 370.8,365.9 371,367 370.1,366.5 369.1,367 
		369.3,365.9 368.5,365.2 369.6,365 	"/>
	<polygon id="XMLID_243_" class="st1" points="94.1,205.7 95.1,207.8 97.4,208.1 95.8,209.7 96.2,211.9 94.1,210.9 92.1,211.9 
		92.5,209.7 90.9,208.1 93.1,207.8 	"/>
	<polygon id="XMLID_242_" class="st1" points="348.3,154.9 349.3,156.9 351.6,157.3 350,158.9 350.4,161.1 348.3,160 346.3,161.1 
		346.7,158.9 345.1,157.3 347.3,156.9 	"/>
	<polygon id="XMLID_241_" class="st0" points="80.4,407.8 80.9,408.7 82,408.9 81.2,409.6 81.4,410.7 80.4,410.2 79.5,410.7 
		79.7,409.6 78.9,408.9 80,408.7 	"/>
	<polygon id="XMLID_240_" class="st0" points="282,412.5 282.5,413.5 283.5,413.7 282.8,414.4 282.9,415.5 282,415 281,415.5 
		281.2,414.4 280.4,413.7 281.5,413.5 	"/>
	<polygon id="XMLID_239_" class="st1" points="327.7,467.2 328.7,469.3 331,469.6 329.3,471.2 329.7,473.5 327.7,472.4 325.7,473.5 
		326.1,471.2 324.4,469.6 326.7,469.3 	"/>
	<polygon id="XMLID_238_" class="st1" points="338.7,49.6 339.7,51.6 341.9,52 340.3,53.6 340.7,55.8 338.7,54.7 336.6,55.8 
		337,53.6 335.4,52 337.6,51.6 	"/>
	<polygon id="XMLID_237_" class="st1" points="146.6,11.9 147.6,13.9 149.9,14.2 148.2,15.8 148.6,18.1 146.6,17 144.6,18.1 
		145,15.8 143.3,14.2 145.6,13.9 	"/>
	<polygon id="XMLID_236_" class="st1" points="328.9,337.1 330,339.2 332.2,339.5 330.6,341.1 331,343.3 328.9,342.3 326.9,343.3 
		327.3,341.1 325.7,339.5 327.9,339.2 	"/>
	<polygon id="XMLID_235_" class="st1" points="543.3,5.2 544.4,7.2 546.6,7.6 545,9.2 545.4,11.4 543.3,10.3 541.3,11.4 541.7,9.2 
		540.1,7.6 542.3,7.2 	"/>
	<polygon id="XMLID_234_" class="st1" points="553.8,223.1 554.8,225.2 557.1,225.5 555.5,227.1 555.8,229.3 553.8,228.3 
		551.8,229.3 552.2,227.1 550.6,225.5 552.8,225.2 	"/>
</g>
</svg>
