<?xml version="1.0" encoding="utf-8"?>
<!-- Generator: Adobe Illustrator 19.0.0, SVG Export Plug-In . SVG Version: 6.00 Build 0)  -->
<svg version="1.1" id="Layer_1" xmlns="http://www.w3.org/2000/svg" xmlns:xlink="http://www.w3.org/1999/xlink" x="0px" y="0px"
	 viewBox="0 0 632 120" style="enable-background:new 0 0 632 120;" xml:space="preserve">
<style type="text/css">
	.st0{fill:#192244;}
	.st1{opacity:0.4;fill:#FFFFFF;}
	.st2{opacity:0.79;fill:#FFFFFF;}
	.st3{clip-path:url(#XMLID_42_);}
	.st4{fill:#6DCEAE;}
	.st5{fill:#8EE8C4;}
	.st6{fill:#4CA884;}
	.st7{fill:#F3BA81;}
	.st8{fill:#E09B63;}
	.st9{clip-path:url(#XMLID_65_);}
	.st10{fill:#FF7543;}
	.st11{fill:#FF9676;}
	.st12{fill:#E25023;}
	.st13{clip-path:url(#XMLID_66_);}
	.st14{fill:#2662EA;}
	.st15{fill:#53B748;}
	.st16{fill:#37722B;}
	.st17{opacity:0.3;fill:#9AD3F4;}
</style>
<rect id="XMLID_3609_" x="0.4" y="0" class="st0" width="632" height="120"/>
<g id="XMLID_2067_">
	<polygon id="XMLID_3607_" class="st1" points="293,57 292,57.5 291.8,58.6 291.1,57.8 290,58 290.5,57 290,56.1 291.1,56.3 
		291.8,55.5 292,56.6 	"/>
	<polygon id="XMLID_3605_" class="st1" points="341.6,77.9 340.7,78.4 340.5,79.5 339.8,78.7 338.7,78.9 339.2,77.9 338.7,77 
		339.8,77.1 340.5,76.4 340.7,77.4 	"/>
	<polygon id="XMLID_3604_" class="st1" points="189.5,52.8 188.6,53.3 188.4,54.4 187.6,53.6 186.6,53.8 187.1,52.8 186.6,51.9 
		187.6,52 188.4,51.3 188.6,52.3 	"/>
	<polygon id="XMLID_3602_" class="st1" points="541.7,16.1 540.8,16.6 540.6,17.6 539.9,16.8 538.8,17 539.3,16.1 538.8,15.1 
		539.9,15.3 540.6,14.5 540.8,15.6 	"/>
	<polygon id="XMLID_3600_" class="st1" points="107.6,88.7 106.6,89.1 106.5,90.2 105.7,89.4 104.7,89.6 105.2,88.7 104.7,87.7 
		105.7,87.9 106.5,87.1 106.6,88.2 	"/>
	<polygon id="XMLID_3598_" class="st1" points="521.2,73.2 520.2,73.7 520.1,74.7 519.3,73.9 518.3,74.1 518.8,73.2 518.3,72.2 
		519.3,72.4 520.1,71.6 520.2,72.7 	"/>
	<polygon id="XMLID_3597_" class="st1" points="465,28.9 464,29.4 463.9,30.5 463.1,29.7 462.1,29.9 462.6,28.9 462.1,28 
		463.1,28.2 463.9,27.4 464,28.5 	"/>
	<polygon id="XMLID_3594_" class="st1" points="393.9,87.8 393,88.3 392.8,89.4 392.1,88.6 391,88.8 391.5,87.8 391,86.9 
		392.1,87.1 392.8,86.3 393,87.3 	"/>
	<polygon id="XMLID_3593_" class="st1" points="364.8,40 363.9,40.4 363.7,41.5 363,40.7 361.9,40.9 362.4,40 361.9,39 363,39.2 
		363.7,38.4 363.9,39.5 	"/>
	<polygon id="XMLID_3591_" class="st1" points="169.8,11.9 168.8,12.4 168.6,13.4 167.9,12.7 166.8,12.8 167.3,11.9 166.8,10.9 
		167.9,11.1 168.6,10.3 168.8,11.4 	"/>
	<polygon id="XMLID_3590_" class="st1" points="317.2,100.7 316.2,101.2 316.1,102.2 315.3,101.5 314.2,101.6 314.8,100.7 
		314.2,99.7 315.3,99.9 316.1,99.1 316.2,100.2 	"/>
	<polygon id="XMLID_3589_" class="st1" points="341.4,44.3 340.4,44.7 340.2,45.8 339.5,45 338.4,45.2 338.9,44.3 338.4,43.3 
		339.5,43.5 340.2,42.7 340.4,43.8 	"/>
	<polygon id="XMLID_3588_" class="st1" points="189.2,19.2 188.3,19.6 188.1,20.7 187.4,19.9 186.3,20.1 186.8,19.2 186.3,18.2 
		187.4,18.4 188.1,17.6 188.3,18.7 	"/>
	<polygon id="XMLID_2500_" class="st1" points="276.6,24.8 275.6,25.3 275.4,26.3 274.7,25.5 273.6,25.7 274.1,24.8 273.6,23.8 
		274.7,24 275.4,23.2 275.6,24.3 	"/>
	<polygon id="XMLID_2498_" class="st1" points="142.6,9.7 141.6,10.2 141.5,11.3 140.7,10.5 139.7,10.7 140.2,9.7 139.7,8.8 
		140.7,8.9 141.5,8.2 141.6,9.2 	"/>
	<polygon id="XMLID_2497_" class="st1" points="50.6,6.2 49.7,6.6 49.5,7.7 48.8,6.9 47.7,7.1 48.2,6.2 47.7,5.2 48.8,5.4 49.5,4.6 
		49.7,5.7 	"/>
	<polygon id="XMLID_2496_" class="st1" points="288.5,98.4 287.5,98.9 287.4,99.9 286.6,99.2 285.6,99.3 286.1,98.4 285.6,97.4 
		286.6,97.6 287.4,96.8 287.5,97.9 	"/>
	<polygon id="XMLID_2091_" class="st1" points="152.7,109.1 151.7,109.6 151.6,110.7 150.8,109.9 149.8,110.1 150.3,109.1 
		149.8,108.2 150.8,108.4 151.6,107.6 151.7,108.7 	"/>
	<polygon id="XMLID_2090_" class="st1" points="49.3,104.9 48.3,105.4 48.1,106.5 47.4,105.7 46.3,105.9 46.8,104.9 46.3,104 
		47.4,104.1 48.1,103.4 48.3,104.4 	"/>
	<polygon id="XMLID_2089_" class="st1" points="224.6,92 223.6,92.5 223.5,93.6 222.7,92.8 221.6,93 222.2,92 221.6,91.1 
		222.7,91.3 223.5,90.5 223.6,91.6 	"/>
	<polygon id="XMLID_2088_" class="st1" points="29.5,64 28.5,64.5 28.4,65.5 27.6,64.8 26.6,64.9 27.1,64 26.6,63 27.6,63.2 
		28.4,62.4 28.5,63.5 	"/>
	<polygon id="XMLID_2087_" class="st1" points="201.1,96.4 200.1,96.8 200,97.9 199.2,97.1 198.2,97.3 198.7,96.4 198.2,95.4 
		199.2,95.6 200,94.8 200.1,95.9 	"/>
	<polygon id="XMLID_2084_" class="st2" points="410.3,74.6 408.2,75.7 407.9,77.9 406.3,76.3 404.1,76.7 405.1,74.6 404.1,72.6 
		406.3,73 407.9,71.4 408.2,73.6 	"/>
	<polygon id="XMLID_2079_" class="st1" points="152.6,8.3 151.7,8.8 151.5,9.8 150.8,9.1 149.7,9.3 150.2,8.3 149.7,7.3 150.8,7.5 
		151.5,6.8 151.7,7.8 	"/>
	<polygon id="XMLID_2075_" class="st1" points="81.6,67.2 80.6,67.7 80.5,68.7 79.7,68 78.6,68.1 79.1,67.2 78.6,66.2 79.7,66.4 
		80.5,65.6 80.6,66.7 	"/>
	<polygon id="XMLID_2073_" class="st2" points="97.9,54 95.9,55 95.6,57.3 94,55.6 91.7,56 92.8,54 91.7,52 94,52.4 95.6,50.7 
		95.9,53 	"/>
	<polygon id="XMLID_2072_" class="st2" points="515.6,65 513.5,66 513.2,68.2 511.6,66.6 509.4,67 510.4,65 509.4,63 511.6,63.3 
		513.2,61.7 513.5,64 	"/>
	<polygon id="XMLID_2070_" class="st2" points="228,55.3 226,56.3 225.7,58.5 224.1,56.9 221.8,57.3 222.9,55.3 221.8,53.2 
		224.1,53.6 225.7,52 226,54.2 	"/>
	<polygon id="XMLID_4040_" class="st1" points="589.8,52.8 588.8,53.3 588.7,54.4 587.9,53.6 586.9,53.8 587.4,52.8 586.9,51.9 
		587.9,52 588.7,51.3 588.8,52.3 	"/>
	<polygon id="XMLID_4039_" class="st1" points="507.9,88.7 506.9,89.1 506.8,90.2 506,89.4 505,89.6 505.5,88.7 505,87.7 506,87.9 
		506.8,87.1 506.9,88.2 	"/>
	<polygon id="XMLID_4036_" class="st1" points="570.1,11.9 569.1,12.4 568.9,13.4 568.2,12.7 567.1,12.8 567.6,11.9 567.1,10.9 
		568.2,11.1 568.9,10.3 569.1,11.4 	"/>
	<polygon id="XMLID_4035_" class="st1" points="450.9,6.2 449.9,6.6 449.8,7.7 449,6.9 448,7.1 448.5,6.2 448,5.2 449,5.4 
		449.8,4.6 449.9,5.7 	"/>
	<polygon id="XMLID_4034_" class="st1" points="449.5,104.9 448.6,105.4 448.4,106.5 447.7,105.7 446.6,105.9 447.1,104.9 
		446.6,104 447.7,104.1 448.4,103.4 448.6,104.4 	"/>
	<polygon id="XMLID_4033_" class="st1" points="429.8,64 428.8,64.5 428.7,65.5 427.9,64.8 426.9,64.9 427.4,64 426.9,63 
		427.9,63.2 428.7,62.4 428.8,63.5 	"/>
	<polygon id="XMLID_4032_" class="st1" points="277.5,32.2 276.5,32.7 276.3,33.7 275.6,32.9 274.5,33.1 275,32.2 274.5,31.2 
		275.6,31.4 276.3,30.6 276.5,31.7 	"/>
</g>
<g id="XMLID_4092_">
	<defs>
		<rect id="XMLID_4093_" x="0" y="8.8" width="149.4" height="110.4"/>
	</defs>
	<clipPath id="XMLID_42_">
		<use xlink:href="#XMLID_4093_"  style="overflow:visible;"/>
	</clipPath>
	<g id="XMLID_4094_" class="st3">
		<polygon id="XMLID_4248_" class="st2" points="126,74.6 127.2,77.1 129.9,77.5 128,79.4 128.4,82.1 126,80.8 123.6,82.1 
			124.1,79.4 122.1,77.5 124.8,77.1 		"/>
		<circle id="XMLID_4247_" class="st4" cx="57.8" cy="103.5" r="82.2"/>
		<circle id="XMLID_4246_" class="st5" cx="38.5" cy="90.5" r="56.3"/>
		<path id="XMLID_4245_" class="st6" d="M-23.6,114c5.2,40.4,39.7,71.7,81.5,71.7c45.4,0,82.2-36.8,82.2-82.2
			c0-14.1-3.6-27.4-9.8-38.9C103.3,196-10,164-23.6,114z"/>
		<circle id="XMLID_4244_" class="st4" cx="21.1" cy="51.2" r="7.9"/>
		<path id="XMLID_4243_" class="st6" d="M20,59c-3.9-0.5-6.8-3.9-6.8-7.9c0-4.4,3.6-7.9,8-7.8c1.4,0,2.6,0.4,3.7,1
			C12.2,46.8,15.2,57.7,20,59z"/>
		<circle id="XMLID_4242_" class="st4" cx="3.3" cy="67" r="11.8"/>
		<path id="XMLID_4241_" class="st6" d="M1.6,78.7c-5.8-0.8-10.3-5.8-10.2-11.9c0.1-6.5,5.4-11.8,12-11.7c2,0,3.9,0.6,5.6,1.5
			C-10,60.3-5.6,76.7,1.6,78.7z"/>
		<circle id="XMLID_4240_" class="st4" cx="59.7" cy="82.1" r="9.9"/>
		<path id="XMLID_4239_" class="st6" d="M58.3,91.9c-4.9-0.7-8.6-4.9-8.5-9.9c0.1-5.5,4.5-9.9,10-9.8c1.7,0,3.3,0.5,4.7,1.2
			C48.6,76.5,52.3,90.2,58.3,91.9z"/>
		<circle id="XMLID_4238_" class="st7" cx="37.9" cy="131.1" r="5.9"/>
		<path id="XMLID_4237_" class="st8" d="M37.1,137c-2.9-0.4-5.1-2.9-5.1-5.9c0-3.3,2.7-5.9,6-5.8c1,0,2,0.3,2.8,0.7
			C31.3,127.8,33.5,135.9,37.1,137z"/>
		<circle id="XMLID_4236_" class="st4" cx="52.4" cy="121.6" r="8.5"/>
		<path id="XMLID_4180_" class="st6" d="M51.2,130c-4.2-0.6-7.4-4.2-7.3-8.5c0.1-4.7,3.9-8.4,8.6-8.4c1.5,0,2.8,0.4,4,1.1
			C42.9,116.8,46,128.6,51.2,130z"/>
	</g>
</g>
<g id="XMLID_4054_">
	<defs>
		<rect id="XMLID_4055_" x="482.6" y="9.6" width="149.4" height="110.4"/>
	</defs>
	<clipPath id="XMLID_65_">
		<use xlink:href="#XMLID_4055_"  style="overflow:visible;"/>
	</clipPath>
	<g id="XMLID_4056_" class="st9">
		<polygon id="XMLID_4091_" class="st2" points="506,75.4 504.8,77.9 502.1,78.3 504,80.2 503.6,82.9 506,81.6 508.4,82.9 
			507.9,80.2 509.9,78.3 507.2,77.9 		"/>
		<circle id="XMLID_4090_" class="st10" cx="574.2" cy="104.3" r="82.2"/>
		<circle id="XMLID_4089_" class="st11" cx="593.5" cy="91.3" r="56.3"/>
		<path id="XMLID_4087_" class="st12" d="M655.6,114.8c-5.2,40.4-39.7,71.7-81.5,71.7c-45.4,0-82.2-36.8-82.2-82.2
			c0-14.1,3.6-27.4,9.8-38.9C528.7,196.8,642,164.8,655.6,114.8z"/>
		<circle id="XMLID_4086_" class="st10" cx="610.9" cy="52" r="7.9"/>
		<path id="XMLID_4085_" class="st12" d="M612,59.9c3.9-0.5,6.8-3.9,6.8-7.9c0-4.4-3.6-7.9-8-7.8c-1.4,0-2.6,0.4-3.7,1
			C619.8,47.6,616.8,58.5,612,59.9z"/>
		<circle id="XMLID_4084_" class="st10" cx="628.7" cy="67.8" r="11.8"/>
		<path id="XMLID_4083_" class="st12" d="M630.4,79.6c5.8-0.8,10.3-5.8,10.2-11.9c-0.1-6.5-5.4-11.8-12-11.7c-2,0-3.9,0.6-5.6,1.5
			C642,61.1,637.6,77.5,630.4,79.6z"/>
		<circle id="XMLID_4062_" class="st10" cx="572.3" cy="82.9" r="9.9"/>
		<path id="XMLID_4061_" class="st12" d="M573.7,92.7c4.9-0.7,8.6-4.9,8.5-9.9c-0.1-5.5-4.5-9.9-10-9.8c-1.7,0-3.3,0.5-4.7,1.2
			C583.4,77.3,579.7,91,573.7,92.7z"/>
		<circle id="XMLID_4060_" class="st7" cx="594.1" cy="132" r="5.9"/>
		<path id="XMLID_4059_" class="st8" d="M594.9,137.8c2.9-0.4,5.1-2.9,5.1-5.9c0-3.3-2.7-5.9-6-5.8c-1,0-2,0.3-2.8,0.7
			C600.7,128.6,598.5,136.8,594.9,137.8z"/>
		<circle id="XMLID_4058_" class="st10" cx="579.6" cy="122.5" r="8.5"/>
		<path id="XMLID_4057_" class="st12" d="M580.8,130.9c4.2-0.6,7.4-4.2,7.3-8.5c-0.1-4.7-3.9-8.4-8.6-8.4c-1.5,0-2.8,0.4-4,1.1
			C589.1,117.7,586,129.4,580.8,130.9z"/>
	</g>
</g>
<g id="XMLID_41_">
	<defs>
		<rect id="XMLID_64_" x="226.5" y="47.4" width="175.8" height="72.6"/>
	</defs>
	<clipPath id="XMLID_66_">
		<use xlink:href="#XMLID_64_"  style="overflow:visible;"/>
	</clipPath>
	<g id="XMLID_43_" class="st13">
		<circle id="XMLID_63_" class="st14" cx="315.5" cy="121.4" r="74"/>
		<g id="XMLID_45_">
			<path id="XMLID_62_" class="st15" d="M342.7,77.6c-0.9-0.9-1.7,1.9-0.7,2.2C343.1,80.1,344.2,79.1,342.7,77.6z"/>
			<path id="XMLID_61_" class="st15" d="M290.5,182.5c-0.5-2.8-4.2-2.3-6-1.5c-1.8,0.8-1.5,4.8-0.9,7.2c3.9,1.9,8,3.4,12.3,4.6
				c0.1-0.4,0-0.9-0.4-1.4C294.6,189.7,291,185.3,290.5,182.5z"/>
			<g id="XMLID_46_">
				<path id="XMLID_60_" class="st15" d="M375.5,108.5c3.3,0.2,8.1-4.5,7.5-6.3c-0.7-1.8-4.7-1-5.8-3.8c-1.2-2.8-3-5.2-1.8-5.7
					c1.2-0.5,3.5,7.3,10.6,5.9c0,0,0,0,0-0.1c-0.1-0.4-1.1-3-2.3-6.2c-2.2-5.1-4.9-9.9-8.1-14.3c0.5,0.7,2.4,6.8-0.1,7
					c-2.5,0.2-3-6-3-6.8c0-0.8-2.4-6.9-2.4-7c-0.1-0.1-0.2-0.2-0.3-0.3c-0.3-0.3-0.9-0.9-1.6-1.7c-4.2-4.2-8.9-7.9-13.9-11
					c-0.3,0.8,0.2,2.3-0.4,3c-0.8,1-3.3,3.5-6.2,3.3c-2.8-0.2-4.2-1.5-2.5-2.5c1.7-1,2.6-0.3,3.3-3.5c0.6-2.9,0-3.5-0.2-3.6
					c-3.1-1.6-6.4-2.9-9.8-4c-1.2,3.1-1.5,6.1,1.1,6.3c2.7,0.2,4.2,0.8,3.3,2.8c-0.8,2-2,2.3-3.8,3.5c-1.8,1.2-3.8,2.8-4.2,1.2
					c-0.3-1.7-2.3-4.3-3-6.2c-0.7-1.8-0.8-3.7-2.2-2c-1.3,1.7-2.9,3.2-4.2,5c-1.3,1.8,1.4,2,3.9,3c2.5,1,3,2.7,2.3,3.8
					c-0.7,1.2,1.1,1.5,1.7,2.8c0.4,0.9,1.3,2.7,0,3.5c-1.3,0.8-5.7-1.7-7-0.8c-1.3,0.8-0.3,5.8-0.8,6.8c-0.5,1,3.4,1.3,4.3,2.2
					c0.9,0.8,4.2-1,5-2.3c0.8-1.3,0.7-2.8,2.3-4.3c1.7-1.5,3.2-0.8,4.5-1.3c1.3-0.5,0-1.3,1.3-0.5c1.3,0.8,6.7,4.2,6.3,5.2
					c-0.3,1-2.7,0.3-2.8,1.7c-0.2,1.3,1.2,1.9,2,1.9c0.8,0,2.2-2.2,3-2.7c0.8-0.5,2.5,1.6,4.5,2.7c2,1.1,2.7-3.4,3.7-4
					c1-0.7,8.3-0.5,8.5,0.5c0.2,1-6.8-0.2-7.6,2c-0.8,2.2,2.7,2.8,4.5,4.2c1.8,1.3,3,6,3.2,9.3C368.3,98.4,372.2,108.4,375.5,108.5z
					"/>
				<path id="XMLID_59_" class="st15" d="M328.9,83.9c-1.2-0.4-3.2,0.5-3.7,3.5c-0.5,3-2.9,3.7-4.6,6c-1.7,2.3-2.3,11.8-1.5,15.1
					c0.8,3.3,5.5,8.5,8.6,9c3.2,0.5,8.1,0.5,11.1,0c3-0.5,6,2.7,6,5.7c0,3,3.3,6.2,3.2,8.8c-0.2,2.7-2.3,8.1,0,12.8
					c2.3,4.7,5.6,9,5.8,10.5c0.2,1.5,6.6-0.7,9.8-4.5c3.2-3.8,3.3-3.5,4.3-7.5c1-4,3.2-5.5,3.5-7.6c0.3-2.2,0.3-4.5,0-7.6
					c-0.3-3.2,5.8-10.5,6.2-13.3c0.3-2.8-3.5-2.8-5-5c-1.5-2.2-6.7-12.1-7.1-15.3c-0.5-3.2-6.5-3.8-8.1-4.8c-1.7-1-4,0.8-6.5-0.8
					c-2.5-1.7-7.1-6.3-9.3-6.3C339.4,82.4,331.1,84.6,328.9,83.9z"/>
				<path id="XMLID_58_" class="st15" d="M263.1,115.8c0.2,0.7,0.7,3.2-0.7,5.6c-1.3,2.4-1.8,4.4,0,8.4c1.8,4,4.5,5.3,6.5,9
					c2,3.7,1.7,9.5,2,18.1c0.3,8.6,3.3,15.5,8.3,17.5c5,2-1.8-3-1.3-6.3c0.5-3.3,0.3-5.2,2.2-7.6c1.8-2.5,2.9-1.5,5.2-6
					c2.3-4.5,1.6-6,4.3-7.5c2.7-1.5,6.5,0.2,7.3-5c0.8-5.2-2.5-3.7,1.2-8.3c3.7-4.7-0.2-5.5-3.3-7.3c-3.2-1.8-6.3-2-7.8-3.8
					c-1.5-1.8-1.3-1.3-4-4.2c-2.7-2.8-4.7-2.5-8.1-4.8c-3.5-2.3-6.5-4.2-8.4-2.7C264.4,112.4,262.9,114.9,263.1,115.8z"/>
				<path id="XMLID_57_" class="st15" d="M275.6,59.1c-1.7,1.1-3.4,2.3-5.1,3.6c0.6,2.7-2.1,4-2.9,5.1c-0.8,1.2,0.2,4.2-0.7,4.3
					c-0.8,0.2-1.7-3.3-1.8-4.9c-8.9,8.2-15.7,18.6-19.7,30.4c1.3,3.1,2,5.8,2.5,8.8c0.5,3,5.2,1.3,6.6,3.7c1.5,2.3,4.3,4.3,6.2,5.5
					c1.8,1.2,0-1.2-1.2-3.8c-1.2-2.7-2.7-5.7-2.3-7.6c0.3-1.9-1.7-2.6-3-1.1c-1.3,1.5-2.2,1.8-2.8-1.7c-0.7-3.5,3.2-4,5.2-4.8
					c2-0.8,3,0.7,4.3,1.8c1.3,1.2,1.2-0.8,1.5-4.5s6.2-10.6,8-14c1.8-3.4,3.8-4.6,4.3-6.4c0.5-1.8,4.5-1,7.8,0.2
					c3.3,1.2,3.2-1,1.8-2.7c-1.3-1.7-2.5-2.2-1.2-3.3c1.3-1.2-0.3-2.2-1.7-3.8c-1.3-1.7-1.3-4-1.8-4.7c-0.5-0.7-2.5,2.4-4.1,2.6
					C273.9,61.8,275.1,59.4,275.6,59.1z"/>
				<path id="XMLID_56_" class="st15" d="M289.4,52.2c1,1.2,1.8,1.8,3,3.8c1.2,2,3.3,3.5,4.5,0c1.2-3.5,2.7-6.8,2.8-6.9
					C296.1,49.9,292.7,50.9,289.4,52.2z"/>
				<g id="XMLID_47_">
					<g id="XMLID_48_">
						<path id="XMLID_55_" class="st15" d="M371.5,141.1c-1.3,2.5-4.2,5.7-3.5,7.3c0.7,1.7,1.5,1.8,3.5-1.3c2-3.2,4-7.6,4.5-10.3
							c0.5-2.7,1.3-5.8,0-4.3c-1.3,1.5-4.5,4.3-4.5,6.5C371.5,141.1,371.5,141.1,371.5,141.1z"/>
						<path id="XMLID_54_" class="st16" d="M348.7,187.5c-0.8-0.3-3,0.3-4.7-0.8c-2.7-1.8-6,0.5-9.8,0.7c-3.8,0.2-8.6,0.3-12.6,2.3
							c-4,2-4.2,1.8-7.8,3.2c-2.5,0.9-2.4,1.7-2.2,2.5c1.3,0.1,2.5,0.1,3.8,0.1C327.4,195.4,338.7,192.6,348.7,187.5z"/>
						<path id="XMLID_53_" class="st15" d="M371.5,135.6c0.3-2.2,0.3-4.5,0-7.6c-0.3-3.2,5.8-10.5,6.2-13.3c0.3-2.8-3.5-2.8-5-5
							c-1.5-2.2-6.7-12.1-7.1-15.3c-0.5-3.2-6.5-3.8-8.1-4.8c-1.7-1-4,0.8-6.5-0.8c-1.2-0.8-2.9-2.3-4.6-3.6
							c3.6,9.5,5.9,20.6,5.2,33.2c-0.4,7.8-2,14.8-4.5,21.1c0,1.8,0.2,3.6,1.1,5.4c2.3,4.7,5.6,9,5.8,10.5c0.2,1.5,6.6-0.7,9.8-4.5
							c3.2-3.8,3.3-3.5,4.3-7.5C369,139.3,371.2,137.8,371.5,135.6z"/>
						<g id="XMLID_50_">
							<path id="XMLID_52_" class="st15" d="M329.8,56.7c-0.2,0.2-0.4,0.5-0.6,0.7c1.8,2,3.7,4.3,5.6,6.9c-0.6-1.7-2.2-4-2.8-5.6
								C331.3,56.8,331.1,55,329.8,56.7z"/>
							<path id="XMLID_51_" class="st15" d="M375.5,108.5c3.3,0.2,8.1-4.5,7.5-6.3c-0.7-1.8-4.7-1-5.8-3.8c-1.2-2.8-3-5.2-1.8-5.7
								c1.2-0.5,3.5,7.3,10.5,5.9c-0.1-0.2-0.1-0.3-0.2-0.5c-0.3-0.9-1.1-3-2.1-5.5c-0.1-0.3-0.3-0.7-0.5-1
								c-0.4-0.8-0.7-1.6-1.1-2.4c-0.2-0.4-0.4-0.8-0.6-1.2c-0.4-0.8-0.8-1.5-1.2-2.3c-0.2-0.4-0.4-0.8-0.6-1.2
								c-0.5-0.8-1-1.6-1.5-2.4c-0.2-0.3-0.3-0.6-0.5-0.9c-0.7-1.1-1.4-2.2-2.2-3.2c0,0,0,0,0,0c0.5,0.7,2.4,6.8-0.1,7
								c-2.5,0.2-3-6-3-6.8c0-0.8-2.2-6.4-2.4-6.9c-0.3-0.3-0.6-0.7-0.9-1c-0.1-0.1-0.2-0.2-0.3-0.4c-0.4-0.4-0.9-0.9-1.3-1.3
								c-0.6-0.6-1.3-1.2-1.9-1.8c-0.4-0.3-0.7-0.7-1.1-1c-0.8-0.7-1.5-1.3-2.3-1.9c-0.3-0.2-0.5-0.4-0.8-0.7c-1-0.8-2-1.6-3.1-2.3
								c-0.4-0.3-0.8-0.6-1.2-0.8c-0.7-0.5-1.4-0.9-2.1-1.4c-0.2-0.1-0.5-0.3-0.7-0.4c-0.3,0.9,0.2,2.3-0.3,3
								c-0.8,1-3.3,3.5-6.2,3.3c-2.8-0.2-4.2-1.5-2.5-2.5c1.7-1,2.6-0.3,3.3-3.5c0.6-2.5,0.1-3.3-0.1-3.5c-0.5-0.3-1.1-0.5-1.6-0.8
								c-0.1-0.1-0.3-0.1-0.4-0.2c-2-0.9-4-1.7-6.1-2.5c-0.2-0.1-0.4-0.1-0.6-0.2c-0.4-0.1-0.8-0.2-1.1-0.4
								c-1.2,3.1-1.5,6.1,1.1,6.2c2.7,0.2,4.2,0.8,3.3,2.8c-0.8,2-2,2.3-3.8,3.5c-1.3,0.8-2.6,1.8-3.4,1.9c2,2.8,4.1,6,5.9,9.5
								c0,0,0.1,0,0.1,0c1.3-0.5,0-1.3,1.3-0.5c1.3,0.8,6.7,4.2,6.3,5.2c-0.3,1-2.7,0.3-2.8,1.7c-0.2,1.3,1.2,1.9,2,1.9
								c0.8,0,2.2-2.2,3-2.7c0.8-0.5,2.5,1.6,4.5,2.7c2,1.1,2.7-3.4,3.7-4c1-0.7,8.3-0.5,8.5,0.5c0.2,1-6.8-0.2-7.6,2
								c-0.8,2.2,2.7,2.8,4.5,4.2c1.8,1.3,3,6,3.2,9.3C368.3,98.4,372.2,108.4,375.5,108.5z"/>
						</g>
						<path id="XMLID_49_" class="st16" d="M283.8,188.3c0.8,0.4,1.6,0.7,2.4,1.1c0.2,0.1,0.5,0.2,0.7,0.3c0.8,0.4,1.7,0.7,2.6,1
							c0.2,0.1,0.3,0.1,0.5,0.2c0.9,0.3,1.7,0.6,2.6,0.9c0.1,0,0.2,0.1,0.2,0.1c1,0.3,1.9,0.6,2.9,0.9c0.1,0,0.1,0,0.2,0.1
							c0.1-0.4,0-0.9-0.4-1.4c-0.6-1-2.2-3.1-3.5-5.3c-3,0.9-5.8,1.6-8.4,2.1C283.7,188.2,283.8,188.3,283.8,188.3z"/>
					</g>
				</g>
			</g>
		</g>
		<circle id="XMLID_44_" class="st17" cx="315.1" cy="108.6" r="58.3"/>
	</g>
</g>
</svg>
