<?xml version="1.0" encoding="utf-8"?>
<!-- Generator: Adobe Illustrator 21.0.0, SVG Export Plug-In . SVG Version: 6.00 Build 0)  -->
<svg version="1.1" id="Слой_1" xmlns="http://www.w3.org/2000/svg" xmlns:xlink="http://www.w3.org/1999/xlink" x="0px" y="0px"
	 viewBox="0 0 167.9 167.9" style="enable-background:new 0 0 167.9 167.9;" xml:space="preserve">
<style type="text/css">
	.st0{fill:#2662EA;}
	.st1{fill:#53B748;}
	.st2{fill:#37722B;}
	.st3{opacity:0.3;fill:#9AD3F4;enable-background:new    ;}
</style>
<title>planet-earth</title>
<g id="_Группа_">
	<circle id="_Контур_" class="st0" cx="83.9" cy="83.9" r="83.9"/>
	<g id="_Группа_2">
		<path id="_Контур_2" class="st1" d="M114.9,34.2c-1.1-1.1-1.9,2.2-0.8,2.5S116.6,35.9,114.9,34.2z"/>
		<path id="_Контур_3" class="st1" d="M55.6,153.3c-0.6-3.2-4.7-2.6-6.8-1.7s-1.7,5.5-1.1,8.1c4.5,2.1,9.2,3.9,14,5.2
			c0.1-0.6-0.1-1.2-0.4-1.6C60.2,161.5,56.2,156.5,55.6,153.3z"/>
		<g id="_Группа_3">
			<path id="_Контур_4" class="st1" d="M152,69.3c3.8,0.2,9.2-5.1,8.5-7.2s-5.3-1.1-6.6-4.3s-3.4-5.8-2.1-6.4s4,8.3,12,6.7V58
				c-0.2-0.5-1.2-3.4-2.6-7c-2.5-5.7-5.5-11.2-9.2-16.2c0.5,0.8,2.7,7.8-0.1,7.9s-3.4-6.8-3.4-7.7s-2.7-7.8-2.8-7.9l-0.3-0.4
				l-1.9-1.8c-4.7-4.8-10-9-15.8-12.6c-0.3,1,0.3,2.7-0.4,3.4c-0.9,1.1-3.8,4-7,3.8s-4.7-1.7-2.8-2.8s3-0.4,3.8-4
				c0.7-3.3,0-4-0.2-4.1c-3.6-1.8-7.3-3.3-11.1-4.5c-1.4,3.5-1.7,6.9,1.3,7.1s4.7,0.9,3.8,3.2s-2.3,2.6-4.3,4s-4.3,3.2-4.7,1.3
				s-2.6-4.9-3.4-7s-0.9-4.2-2.4-2.3s-3.3,3.6-4.8,5.7s1.6,2.3,4.4,3.4s3.4,3,2.6,4.3s1.2,1.8,1.9,3.2c0.4,1,1.5,3,0,4
				s-6.4-1.9-7.9-0.9s-0.4,6.6-0.9,7.7s3.8,1.5,4.8,2.4s4.8-1.1,5.7-2.6s0.8-3.2,2.6-4.9s3.6-0.9,5.1-1.5s0-1.5,1.5-0.6
				s7.6,4.7,7.2,5.8s-3,0.4-3.2,1.9s1.3,2.2,2.3,2.1s2.4-2.5,3.4-3.1s2.8,1.8,5.1,3.1s3-3.8,4.1-4.6s9.4-0.6,9.6,0.6
				s-7.7-0.2-8.7,2.3s3,3.2,5.1,4.7s3.4,6.8,3.6,10.6S148.3,69.1,152,69.3z"/>
			<path id="_Контур_5" class="st1" d="M99.2,41.4c-1.4-0.4-3.7,0.6-4.2,4s-3.3,4.2-5.2,6.8s-2.6,13.4-1.7,17.2
				s6.2,9.6,9.8,10.2c4.2,0.6,8.4,0.6,12.6,0c3.4-0.6,6.8,3,6.8,6.4c0,3.4,3.8,7,3.6,10s-2.6,9.2,0,14.5s6.4,10.2,6.6,11.9
				s7.6-0.8,11.1-5.1s3.8-4,4.9-8.5s3.6-6.2,4-8.7c0.4-2.9,0.4-5.8,0-8.7c-0.4-3.6,6.6-11.9,7-15.1s-4-3.2-5.7-5.7
				s-7.6-13.8-8.1-17.4s-7.4-4.3-9.2-5.5s-4.5,0.9-7.4-0.9s-8.1-7.2-10.6-7.2S101.7,42.2,99.2,41.4z"/>
			<path id="_Контур_6" class="st1" d="M24.5,77.6c0.5,2.1,0.3,4.4-0.8,6.3c-1.5,2.7-2.1,5,0,9.5s5.1,6,7.4,10.2
				s1.9,10.8,2.3,20.6s3.8,17.5,9.4,19.8s-2.1-3.4-1.5-7.1s0.4-5.9,2.4-8.7s3.3-1.7,5.9-6.8s1.8-6.8,4.8-8.5s7.4,0.2,8.3-5.7
				s-2.8-4.1,1.3-9.4s-0.2-6.2-3.8-8.3s-7.2-2.3-8.9-4.3S50,83.7,47,80.5s-5.3-2.8-9.2-5.5s-7.4-4.7-9.5-3S24.2,76.5,24.5,77.6z"/>
			<path id="_Контур_7" class="st1" d="M38.7,13.2c-2,1.3-3.9,2.6-5.8,4c0.7,3-2.4,4.5-3.3,5.8s0.2,4.7-0.8,4.9
				s-1.9-3.8-2-5.6C16.6,31.8,9,43.7,4.5,56.9c1.3,3.2,2.3,6.6,2.9,10c0.6,3.4,5.8,1.5,7.5,4.2s4.9,4.9,7,6.2s0-1.3-1.3-4.3
				s-3-6.4-2.6-8.6s-1.9-2.9-3.4-1.2s-2.5,2.1-3.2-1.9s3.6-4.5,5.8-5.5s3.4,0.8,4.9,2.1s1.3-0.9,1.7-5.1s7-12.1,9.1-15.9
				s4.3-5.2,4.9-7.3s5.1-1.1,8.9,0.2s3.6-1.1,2.1-3s-2.8-2.5-1.3-3.8s-0.4-2.5-1.9-4.3s-1.5-4.5-2.1-5.3s-2.8,2.7-4.7,2.9
				S38.2,13.6,38.7,13.2z"/>
			<path id="_Контур_8" class="st1" d="M54.3,5.4c1.3,1.3,2.5,2.8,3.4,4.3c1.3,2.3,3.8,4,5.1,0c0.9-2.7,1.9-5.3,3.1-7.8
				C62,2.8,58.1,3.9,54.3,5.4z"/>
			<g id="_Группа_4">
				<g id="_Группа_5">
					<path id="_Контур_9" class="st1" d="M147.5,106.3c-1.5,2.8-4.7,6.4-4,8.3s1.7,2.1,4-1.5s4.5-8.7,5.1-11.7s1.5-6.6,0-4.9
						s-5.1,4.9-5.1,7.4V106.3z"/>
					<path id="_Контур_10" class="st2" d="M121.7,159c-0.9-0.4-3.4,0.3-5.3-1c-3.1-2-6.8,0.6-11.1,0.8s-9.8,0.3-14.3,2.6
						s-4.7,2.1-8.9,3.6c-2.8,1-2.8,2-2.4,2.8c1.4,0.1,2.9,0.1,4.3,0.1C97,167.9,110,164.8,121.7,159z"/>
					<path id="_Контур_11" class="st1" d="M147.5,100.1c0.4-2.9,0.4-5.8,0-8.7c-0.4-3.6,6.6-11.9,7-15.1s-4-3.2-5.7-5.7
						s-7.6-13.8-8.1-17.4s-7.4-4.3-9.2-5.5s-4.5,0.9-7.4-0.9c-1.4-0.9-3.3-2.6-5.2-4.1c4.6,12,6.7,24.8,5.9,37.6
						c-0.4,8.2-2.1,16.3-5.1,24c-0.1,2.1,0.3,4.2,1.2,6.1c2.6,5.3,6.4,10.2,6.6,11.9s7.6-0.8,11.1-5.1s3.8-4,4.9-8.5
						S147.1,102.5,147.5,100.1z"/>
					<g id="_Группа_6">
						<path id="_Контур_12" class="st1" d="M100.2,10.5c-0.2,0.3-0.5,0.5-0.7,0.8c2,2.3,4.2,4.9,6.4,7.8
							c-0.6-1.9-2.5-4.5-3.2-6.4C101.9,10.7,101.7,8.6,100.2,10.5z"/>
						<path id="_Контур_13" class="st1" d="M152,69.3c3.8,0.2,9.2-5.1,8.5-7.2s-5.3-1.1-6.6-4.3s-3.4-5.8-2.1-6.4
							s4,8.3,12,6.7l-0.2-0.6c-0.4-1-1.2-3.4-2.3-6.2c-0.2-0.4-0.3-0.8-0.5-1.2c-0.4-0.9-0.8-1.8-1.3-2.7c-0.2-0.5-0.5-0.9-0.7-1.4
							c-0.4-0.9-0.9-1.7-1.4-2.6c-0.2-0.4-0.5-0.9-0.7-1.3c-0.5-0.9-1.1-1.8-1.7-2.8c-0.2-0.3-0.4-0.7-0.6-1
							c-0.8-1.2-1.6-2.4-2.5-3.6l0,0c0.5,0.8,2.7,7.8-0.1,7.9s-3.4-6.8-3.4-7.7s-2.5-7.3-2.7-7.8c-0.3-0.4-0.7-0.7-1-1.1l-0.4-0.4
							c-0.5-0.5-1-1-1.5-1.5c-0.7-0.7-1.4-1.4-2.2-2.1c-0.4-0.4-0.8-0.8-1.2-1.1c-0.9-0.8-1.7-1.5-2.6-2.2c-0.3-0.2-0.6-0.5-0.9-0.7
							c-1.1-0.9-2.3-1.8-3.5-2.6c-0.5-0.3-0.9-0.6-1.4-1c-0.8-0.5-1.6-1.1-2.4-1.6l-0.8-0.5c-0.3,1,0.3,2.6-0.4,3.4
							c-0.9,1.1-3.8,4-7,3.8s-4.7-1.7-2.8-2.8s3-0.4,3.8-4c0.6-2.9,0.1-3.8-0.1-4c-0.6-0.3-1.2-0.6-1.9-0.9l-0.4-0.2
							c-2.3-1-4.6-2-7-2.8l-0.6-0.2L110,4.1c-1.4,3.5-1.7,6.9,1.3,7.1s4.7,0.9,3.8,3.2s-2.3,2.6-4.3,4c-1.4,0.9-2.9,2.1-3.9,2.1
							c2.5,3.4,4.7,7,6.7,10.8h0.1c1.5-0.6,0-1.5,1.5-0.6s7.6,4.7,7.2,5.8s-3,0.4-3.2,1.9s1.3,2.2,2.3,2.1s2.4-2.5,3.4-3.1
							s2.8,1.8,5.1,3.1s3-3.8,4.1-4.6s9.4-0.6,9.6,0.6s-7.7-0.2-8.7,2.3s3,3.2,5.1,4.7s3.4,6.8,3.6,10.6S148.3,69.1,152,69.3z"/>
					</g>
					<path id="_Контур_14" class="st2" d="M48,159.8c0.9,0.4,1.8,0.8,2.7,1.2l0.8,0.3c1,0.4,1.9,0.8,2.9,1.2l0.6,0.2
						c1,0.4,2,0.7,3,1l0.3,0.1c1.1,0.3,2.2,0.7,3.3,1l0.2,0.1c0.1-0.6-0.1-1.2-0.4-1.6c-0.7-1.1-2.5-3.6-3.9-6
						c-3.4,1-6.6,1.8-9.6,2.4L48,159.8z"/>
				</g>
			</g>
		</g>
	</g>
	<circle id="_Контур_15" class="st3" cx="83.5" cy="69.3" r="66.2"/>
</g>
</svg>
