<?xml version="1.0" encoding="utf-8"?>
<!-- Generator: Adobe Illustrator 21.0.0, SVG Export Plug-In . SVG Version: 6.00 Build 0)  -->
<svg version="1.1" id="Слой_1" xmlns="http://www.w3.org/2000/svg" xmlns:xlink="http://www.w3.org/1999/xlink" x="0px" y="0px"
	 viewBox="0 0 209.3 209.2" style="enable-background:new 0 0 209.3 209.2;" xml:space="preserve">
<style type="text/css">
	.st0{opacity:0.79;fill:#FFFFFF;enable-background:new    ;}
	.st1{fill:#FF7543;}
	.st2{fill:#FF9676;}
	.st3{fill:#E25023;}
</style>
<title>planet-mars</title>
<g id="_Группа_">
	<polygon class="st0" points="19.3,71 17.8,67.8 16.2,71 12.8,71.5 15.3,73.9 14.7,77.3 17.8,75.7 20.9,77.3 20.3,73.9 22.8,71.5 	
		"/>
	<path class="st1" d="M178.6,30.6v94.2H2c11.2,56.7,66.2,93.6,122.9,82.4c56.7-11.2,93.6-66.2,82.4-122.9
		C203.2,64,193.2,45.3,178.6,30.6z"/>
	<path class="st1" d="M178.6,30.6c-40.9-40.8-107.2-40.8-148,0.2C6,55.4-4.8,90.6,2,124.8h176.6V30.6z"/>
	<path class="st2" d="M178.6,36.2v88.7H67.7c20.2,34,64.2,45.2,98.2,24.9s45.2-64.2,24.9-98.2C187.5,45.9,183.3,40.7,178.6,36.2z"/>
	<path class="st2" d="M178.6,36.2c-28.7-27.2-74-26.1-101.3,2.6c-22.1,23.3-26,58.5-9.6,86h110.8V36.2z"/>
	<path class="st3" d="M39.4,124.8H2c11.2,56.7,66.2,93.6,122.9,82.4c44.1-8.7,77.7-44.6,83.5-89.3C194,170.5,93.4,207.3,39.4,124.8z
		"/>
	<path class="st3" d="M12.5,55C1,76.3-2.7,101,2,124.8h37.4C27.9,107.3,18.5,84.3,12.5,55z"/>
	
		<ellipse transform="matrix(0.9999 -1.116988e-02 1.116988e-02 0.9999 -0.4154 1.6935)" class="st1" cx="151.4" cy="38" rx="10.1" ry="10.1"/>
	<path class="st3" d="M151.3,28c-1.7,0-3.3,0.4-4.8,1.2c16.1,3.1,12.4,17,6.3,18.8c5.5-0.9,9.2-6,8.4-11.5
		C160.4,31.6,156.2,28,151.3,28L151.3,28z"/>
	<path class="st1" d="M189.2,58c-0.1-6.5-4.4-12.3-10.6-14.2v28.8C184.9,70.6,189.3,64.7,189.2,58z"/>
	<path class="st1" d="M173.9,43.1c-8.3,0.1-15,6.9-14.9,15.3s6.9,15,15.3,14.9c1.4,0,2.9-0.2,4.3-0.7V43.8
		C177.1,43.3,175.5,43.1,173.9,43.1z"/>
	<path class="st3" d="M189.2,58c-0.1-6.5-4.4-12.3-10.6-14.2v6.2c8.7,7,5.8,18.2,0,22v0.7C184.9,70.6,189.3,64.7,189.2,58z"/>
	<path class="st3" d="M166.8,45c4.3,0.7,8.3,2.4,11.8,5v-6.2C174.6,42.5,170.4,43,166.8,45z"/>
	<path class="st3" d="M176.2,73.1c0.8-0.1,1.6-0.3,2.4-0.5V72C177.8,72.5,177,72.8,176.2,73.1z"/>
	
		<ellipse transform="matrix(0.9999 -1.116988e-02 1.116988e-02 0.9999 -0.8573 1.1464)" class="st1" cx="102.2" cy="77.3" rx="12.6" ry="12.6"/>
	<path class="st3" d="M102.1,64.7c-2.1,0-4.2,0.6-6,1.6c20.2,3.9,15.5,21.4,7.9,23.5c6.9-1,11.7-7.4,10.7-14.3
		C113.7,69.3,108.3,64.7,102.1,64.7L102.1,64.7z"/>
	
		<ellipse id="_Контур_" transform="matrix(0.9999 -1.116988e-02 1.116988e-02 0.9999 -1.5532 1.4611)" class="st1" cx="130" cy="139.8" rx="7.5" ry="7.5"/>
	<path id="_Контур_2" class="st3" d="M131.1,147.2c4.1-0.6,6.9-4.4,6.4-8.5c-0.6-4.1-4.4-6.9-8.5-6.4
		c-0.9,0.1-1.8,0.4-2.5,0.8C138.4,135.6,135.6,145.9,131.1,147.2z"/>
	<path class="st1" d="M100.8,127.8c0.1,6,5,10.8,10.9,10.7s10.8-5,10.7-10.9c0-0.9-0.1-1.9-0.4-2.7h-20.8
		C100.9,125.8,100.8,126.8,100.8,127.8z"/>
	<path class="st1" d="M111.5,116.9c-4.8,0.1-9,3.3-10.3,7.9H122C120.7,120.1,116.4,116.8,111.5,116.9z"/>
	<path class="st3" d="M113.1,138.4c5.9-0.8,10-6.2,9.2-12.1c-0.1-0.5-0.2-1-0.3-1.4h-4.6C120.6,130.3,117.4,137.2,113.1,138.4z"/>
	<path class="st3" d="M111.5,116.9c-1.8,0-3.5,0.5-5.1,1.4c6,1.1,9.4,3.7,11.1,6.6h4.6C120.7,120.1,116.4,116.8,111.5,116.9z"/>
</g>
</svg>
