<?xml version="1.0" encoding="utf-8"?>
<!-- Generator: Adobe Illustrator 21.0.0, SVG Export Plug-In . SVG Version: 6.00 Build 0)  -->
<svg version="1.1" id="Слой_1" xmlns="http://www.w3.org/2000/svg" xmlns:xlink="http://www.w3.org/1999/xlink" x="0px" y="0px"
	 viewBox="0 0 210 210" style="enable-background:new 0 0 210 210;" xml:space="preserve">
<style type="text/css">
	.st0{opacity:0.79;fill:#FFFFFF;enable-background:new    ;}
	.st1{fill:#6DCEAE;}
	.st2{fill:#8EE8C4;}
	.st3{fill:#4CA884;}
</style>
<g id="_Группа_">
	<polygon class="st0" points="193.7,71.5 192.1,68.3 190.6,71.5 187.1,72 189.6,74.4 189.1,77.8 192.1,76.2 195.2,77.8 194.6,74.4 
		197.1,72 	"/>
	<path class="st1" d="M33.4,29.1c-42,39.7-43.8,105.9-4,147.9s105.9,43.8,147.9,4c16-15.1,26.8-34.9,30.9-56.5H33.4V29.1z"/>
	<path class="st1" d="M105.3,0.5c-26.8,0-52.5,10.2-71.9,28.6v95.4h174.7C218.8,67.7,181.5,13,124.7,2.3
		C118.3,1.1,111.8,0.5,105.3,0.5z"/>
	<path class="st2" d="M33.4,34.8C3.7,60.9,0.8,106.2,27,135.9s71.4,32.6,101.1,6.4c5.8-5.1,10.7-11.1,14.6-17.8H33.4V34.8z"/>
	<path class="st2" d="M80.7,16.9c-17.4,0-34.3,6.3-47.3,17.9v89.8h109.3c19.9-34.2,8.3-78.1-25.9-97.9
		C105.8,20.2,93.4,16.9,80.7,16.9L80.7,16.9z"/>
	<path class="st3" d="M1.6,118.4c7.4,57.3,59.8,97.8,117.1,90.4c44.9-5.8,81.1-39.8,89.5-84.3h-37.1
		C117.1,208.1,15.9,171.1,1.6,118.4z"/>
	<path class="st3" d="M197.4,55.5c-5.9,28.9-15.1,51.6-26.4,69.1h37.1C212.6,101,208.8,76.6,197.4,55.5L197.4,55.5z"/>
	
		<ellipse transform="matrix(1.116986e-02 -0.9999 0.9999 1.116986e-02 19.3195 96.666)" class="st1" cx="58.5" cy="38.6" rx="10.1" ry="10.1"/>
	<path class="st3" d="M63.4,29.8c-4.9-2.7-11-0.9-13.7,4s-0.9,11,4,13.7c1.1,0.6,2.2,1,3.4,1.2C51,46.8,47.3,32.9,63.4,29.8z"/>
	<path class="st1" d="M20.8,58.5c-0.1,7.4,5.3,13.8,12.7,15V43.8C26.2,45,20.8,51.2,20.8,58.5z"/>
	<path class="st1" d="M50.9,58.8c0.1-8.3-6.5-15.1-14.8-15.2c-0.9,0-1.8,0.1-2.7,0.2v29.7c8.2,1.4,15.9-4.1,17.3-12.3
		C50.8,60.5,50.9,59.7,50.9,58.8z"/>
	<path class="st3" d="M33.4,49v-5.2c-8.2,1.3-13.8,9.1-12.4,17.3c1,6.4,6.1,11.4,12.4,12.4v-0.1C26,71,21.1,56.5,33.4,49z"/>
	<path class="st3" d="M43.1,45.5c-3-1.6-6.4-2.2-9.7-1.7V49C36.4,47.3,39.7,46.1,43.1,45.5z"/>
	<path class="st3" d="M33.4,73.5L33.4,73.5l0.3,0.1L33.4,73.5z"/>
	
		<ellipse transform="matrix(1.116986e-02 -0.9999 0.9999 1.116986e-02 28.6777 184.6929)" class="st1" cx="107.7" cy="77.8" rx="12.6" ry="12.6"/>
	<path class="st3" d="M113.8,66.8c-6.1-3.4-13.8-1.2-17.1,4.9s-1.2,13.8,4.9,17.1c1.4,0.7,2.8,1.2,4.4,1.5
		C98.3,88.1,93.6,70.7,113.8,66.8z"/>
	
		<ellipse id="_Контур_" transform="matrix(1.116986e-02 -0.9999 0.9999 1.116986e-02 -61.2782 218.6185)" class="st1" cx="79.9" cy="140.3" rx="7.5" ry="7.5"/>
	<path id="_Контур_2" class="st3" d="M78.9,147.7c-4.1-0.6-6.9-4.4-6.4-8.5c0.6-4.1,4.4-6.9,8.5-6.4c0.9,0.1,1.8,0.4,2.5,0.8
		C71.5,136.1,74.3,146.4,78.9,147.7z"/>
	<path class="st1" d="M87.5,128.1c0,6,4.8,10.8,10.7,10.9c6,0,10.8-4.8,10.9-10.7c0-1.3-0.2-2.5-0.6-3.7H88.2
		C87.8,125.7,87.5,126.9,87.5,128.1z"/>
	<path class="st1" d="M98.5,117.4c-4.6-0.1-8.7,2.8-10.3,7.1h20.3C107,120.3,103,117.5,98.5,117.4z"/>
	<path class="st3" d="M88.2,124.6c-2,5.6,0.9,11.8,6.5,13.8c0.7,0.3,1.4,0.4,2.2,0.5c-4.5-1.3-7.8-8.7-3.8-14.4H88.2z"/>
	<path class="st3" d="M103.6,118.8c-5.2-2.9-11.8-1-14.7,4.2c-0.3,0.5-0.5,1-0.7,1.6H93C94.8,122,98.1,119.8,103.6,118.8z"/>
</g>
</svg>
