<svg id="Слой_1" data-name="Слой 1" xmlns="http://www.w3.org/2000/svg" viewBox="0 0 64 61"><defs><style>.cls-1{fill:#b4cedb;}.cls-2{fill:#dfedf7;}.cls-3{fill:#009ade;}.cls-4{fill:#fff;}.cls-5{fill:#0080bb;}.cls-6{fill:#c8dce8;}</style></defs><title>satellite</title><g id="_Группа_" data-name="&lt;Группа&gt;"><g id="_Группа_2" data-name="&lt;Группа&gt;"><g id="_Группа_3" data-name="&lt;Группа&gt;"><path id="_Контур_" data-name="&lt;Контур&gt;" class="cls-1" d="M41.18,30.52l-3.51-2.81a.6.6,0,0,1-.09-.85h0a.6.6,0,0,1,.85-.09l3.51,2.81a.6.6,0,0,1,.09.85h0A.6.6,0,0,1,41.18,30.52Z"/><path id="_Контур_2" data-name="&lt;Контур&gt;" class="cls-1" d="M41.93,29.58l-1.76-1.41-.75.94,1.76,1.41a.6.6,0,0,0,.75-.94Z"/></g><g id="_Группа_4" data-name="&lt;Группа&gt;"><path id="_Контур_3" data-name="&lt;Контур&gt;" class="cls-1" d="M35.56,37.54,32,34.72a.6.6,0,0,1-.09-.85h0a.6.6,0,0,1,.85-.09l3.51,2.81a.6.6,0,0,1,.09.85h0A.6.6,0,0,1,35.56,37.54Z"/><path id="_Контур_4" data-name="&lt;Контур&gt;" class="cls-1" d="M36.32,36.59l-1.76-1.41-.75.94,1.76,1.41a.6.6,0,0,0,.75-.94Z"/></g><g id="_Группа_5" data-name="&lt;Группа&gt;"><path id="_Контур_5" data-name="&lt;Контур&gt;" class="cls-1" d="M30.18,21.72l-3.51-2.81a.6.6,0,0,1-.09-.85h0a.6.6,0,0,1,.85-.09l3.51,2.81a.6.6,0,0,1,.09.85h0A.6.6,0,0,1,30.18,21.72Z"/><path id="_Контур_6" data-name="&lt;Контур&gt;" class="cls-1" d="M30.94,20.78l-1.76-1.41-.75.94,1.76,1.41a.6.6,0,0,0,.75-.94Z"/></g><g id="_Группа_6" data-name="&lt;Группа&gt;"><path id="_Контур_7" data-name="&lt;Контур&gt;" class="cls-1" d="M24.57,28.73l-3.51-2.81a.6.6,0,0,1-.09-.85h0a.6.6,0,0,1,.85-.09l3.51,2.81a.6.6,0,0,1,.09.85h0A.6.6,0,0,1,24.57,28.73Z"/><path id="_Контур_8" data-name="&lt;Контур&gt;" class="cls-1" d="M25.32,27.79l-1.76-1.41-.75.94,1.76,1.41a.6.6,0,0,0,.75-.94Z"/></g></g><g id="_Группа_7" data-name="&lt;Группа&gt;"><g id="_Группа_8" data-name="&lt;Группа&gt;"><rect id="_Прямоугольник_" data-name="&lt;Прямоугольник&gt;" class="cls-2" x="2.29" y="5.48" width="25.17" height="17.3" rx="1.77" ry="1.77" transform="translate(12.09 -6.2) rotate(38.68)"/><path id="_Контур_9" data-name="&lt;Контур&gt;" class="cls-2" d="M5,6.26.75,11.63A1.78,1.78,0,0,0,1,14.12L17.91,27.64a1.78,1.78,0,0,0,2.49-.28L24.7,22Z"/></g><g id="_Группа_9" data-name="&lt;Группа&gt;"><rect id="_Прямоугольник_2" data-name="&lt;Прямоугольник&gt;" class="cls-3" x="8.88" y="2.42" width="4.37" height="4.37" transform="translate(5.3 -5.91) rotate(38.68)"/><rect id="_Прямоугольник_3" data-name="&lt;Прямоугольник&gt;" class="cls-3" x="13.46" y="6.08" width="4.37" height="4.37" transform="translate(8.6 -7.96) rotate(38.68)"/><rect id="_Прямоугольник_4" data-name="&lt;Прямоугольник&gt;" class="cls-3" x="18.04" y="9.74" width="4.37" height="4.37" transform="translate(11.89 -10.02) rotate(38.68)"/><rect id="_Прямоугольник_5" data-name="&lt;Прямоугольник&gt;" class="cls-3" x="22.61" y="13.41" width="4.37" height="4.37" transform="translate(15.18 -12.08) rotate(38.68)"/><rect id="_Прямоугольник_6" data-name="&lt;Прямоугольник&gt;" class="cls-3" x="5.72" y="6.37" width="4.37" height="4.37" transform="translate(7.08 -3.07) rotate(38.67)"/><rect id="_Прямоугольник_7" data-name="&lt;Прямоугольник&gt;" class="cls-3" x="10.3" y="10.03" width="4.37" height="4.37" transform="translate(10.37 -5.12) rotate(38.67)"/><rect id="_Прямоугольник_8" data-name="&lt;Прямоугольник&gt;" class="cls-3" x="14.87" y="13.69" width="4.37" height="4.37" transform="translate(13.66 -7.18) rotate(38.67)"/><rect id="_Прямоугольник_9" data-name="&lt;Прямоугольник&gt;" class="cls-3" x="19.45" y="17.36" width="4.37" height="4.37" transform="translate(16.96 -9.23) rotate(38.67)"/><rect id="_Прямоугольник_10" data-name="&lt;Прямоугольник&gt;" class="cls-3" x="2.56" y="10.32" width="4.37" height="4.37" transform="translate(8.85 -0.22) rotate(38.67)"/><rect id="_Прямоугольник_11" data-name="&lt;Прямоугольник&gt;" class="cls-3" x="7.14" y="13.98" width="4.37" height="4.37" transform="translate(12.15 -2.28) rotate(38.67)"/><rect id="_Прямоугольник_12" data-name="&lt;Прямоугольник&gt;" class="cls-3" x="11.71" y="17.64" width="4.37" height="4.37" transform="translate(15.44 -4.34) rotate(38.67)"/><rect id="_Прямоугольник_13" data-name="&lt;Прямоугольник&gt;" class="cls-3" x="16.29" y="21.31" width="4.37" height="4.37" transform="translate(18.73 -6.39) rotate(38.68)"/></g></g><g id="_Группа_10" data-name="&lt;Группа&gt;"><g id="_Группа_11" data-name="&lt;Группа&gt;"><rect id="_Прямоугольник_14" data-name="&lt;Прямоугольник&gt;" class="cls-2" x="35.89" y="32.38" width="25.17" height="17.3" rx="1.77" ry="1.77" transform="translate(36.27 -21.3) rotate(38.68)"/><path id="_Контур_10" data-name="&lt;Контур&gt;" class="cls-2" d="M38.65,33.16l-4.3,5.37A1.78,1.78,0,0,0,34.63,41L51.52,54.54A1.78,1.78,0,0,0,54,54.26l4.3-5.37Z"/></g><g id="_Группа_12" data-name="&lt;Группа&gt;"><rect id="_Прямоугольник_15" data-name="&lt;Прямоугольник&gt;" class="cls-3" x="42.49" y="29.32" width="4.37" height="4.37" transform="translate(29.48 -21.01) rotate(38.68)"/><rect id="_Прямоугольник_16" data-name="&lt;Прямоугольник&gt;" class="cls-3" x="47.07" y="32.98" width="4.37" height="4.37" transform="translate(32.78 -23.07) rotate(38.68)"/><rect id="_Прямоугольник_17" data-name="&lt;Прямоугольник&gt;" class="cls-3" x="51.64" y="36.64" width="4.37" height="4.37" transform="translate(36.07 -25.12) rotate(38.68)"/><rect id="_Прямоугольник_18" data-name="&lt;Прямоугольник&gt;" class="cls-3" x="56.22" y="40.31" width="4.37" height="4.37" transform="translate(39.36 -27.18) rotate(38.68)"/><rect id="_Прямоугольник_19" data-name="&lt;Прямоугольник&gt;" class="cls-3" x="39.33" y="33.27" width="4.37" height="4.37" transform="translate(31.26 -18.17) rotate(38.68)"/><rect id="_Прямоугольник_20" data-name="&lt;Прямоугольник&gt;" class="cls-3" x="43.91" y="36.93" width="4.37" height="4.37" transform="translate(34.55 -20.22) rotate(38.67)"/><rect id="_Прямоугольник_21" data-name="&lt;Прямоугольник&gt;" class="cls-3" x="48.48" y="40.59" width="4.37" height="4.37" transform="translate(37.84 -22.28) rotate(38.67)"/><rect id="_Прямоугольник_22" data-name="&lt;Прямоугольник&gt;" class="cls-3" x="53.06" y="44.26" width="4.37" height="4.37" transform="translate(41.14 -24.34) rotate(38.67)"/><rect id="_Прямоугольник_23" data-name="&lt;Прямоугольник&gt;" class="cls-3" x="36.17" y="37.22" width="4.37" height="4.37" transform="translate(33.03 -15.33) rotate(38.67)"/><rect id="_Прямоугольник_24" data-name="&lt;Прямоугольник&gt;" class="cls-3" x="40.74" y="40.88" width="4.37" height="4.37" transform="translate(36.33 -17.38) rotate(38.67)"/><rect id="_Прямоугольник_25" data-name="&lt;Прямоугольник&gt;" class="cls-3" x="45.32" y="44.54" width="4.37" height="4.37" transform="translate(39.62 -19.44) rotate(38.67)"/><rect id="_Прямоугольник_26" data-name="&lt;Прямоугольник&gt;" class="cls-3" x="49.9" y="48.21" width="4.37" height="4.37" transform="translate(42.91 -21.5) rotate(38.67)"/></g></g><g id="_Группа_13" data-name="&lt;Группа&gt;"><g id="_Группа_14" data-name="&lt;Группа&gt;"><g id="_Группа_15" data-name="&lt;Группа&gt;"><rect id="_Прямоугольник_27" data-name="&lt;Прямоугольник&gt;" class="cls-4" x="20.52" y="32.87" width="5.27" height="10.41" transform="translate(28.87 -6.12) rotate(38.67)"/><rect id="_Прямоугольник_28" data-name="&lt;Прямоугольник&gt;" class="cls-2" x="22.87" y="33.7" width="2.63" height="10.41" transform="translate(29.61 -6.58) rotate(38.67)"/></g><g id="_Группа_16" data-name="&lt;Группа&gt;"><rect id="_Прямоугольник_29" data-name="&lt;Прямоугольник&gt;" class="cls-2" x="25.66" y="18.62" width="10.48" height="19.53" transform="translate(24.51 -13.08) rotate(38.68)"/><rect id="_Прямоугольник_30" data-name="&lt;Прямоугольник&gt;" class="cls-2" x="30.32" y="20.26" width="5.24" height="19.53" transform="translate(25.99 -14) rotate(38.68)"/></g><g id="_Группа_17" data-name="&lt;Группа&gt;"><path id="_Контур_11" data-name="&lt;Контур&gt;" class="cls-5" d="M41.64,24.48,32.36,17a1.41,1.41,0,0,1-.22-2h0a1.41,1.41,0,0,1,2-.22l9.28,7.43a1.41,1.41,0,0,1,.22,2h0A1.41,1.41,0,0,1,41.64,24.48Z"/><path id="_Контур_12" data-name="&lt;Контур&gt;" class="cls-5" d="M43.62,24.26a1.41,1.41,0,0,0-.22-2l-4.64-3.71L37,20.76l4.64,3.71A1.41,1.41,0,0,0,43.62,24.26Z"/></g><g id="_Группа_18" data-name="&lt;Группа&gt;"><path id="_Контур_13" data-name="&lt;Контур&gt;" class="cls-5" d="M28.61,40.75l-9.28-7.43a1.41,1.41,0,0,1-.22-2h0a1.41,1.41,0,0,1,2-.22l9.28,7.43a1.41,1.41,0,0,1,.22,2h0A1.41,1.41,0,0,1,28.61,40.75Z"/><path id="_Контур_14" data-name="&lt;Контур&gt;" class="cls-5" d="M30.59,40.53a1.41,1.41,0,0,0-.22-2l-4.64-3.71L24,37l4.64,3.71A1.41,1.41,0,0,0,30.59,40.53Z"/></g><g id="_Группа_19" data-name="&lt;Группа&gt;"><path id="_Контур_15" data-name="&lt;Контур&gt;" class="cls-3" d="M42.27,14.2a5.61,5.61,0,0,0-7.88.87l8.76,7A5.61,5.61,0,0,0,42.27,14.2Z"/><path id="_Контур_16" data-name="&lt;Контур&gt;" class="cls-3" d="M43.15,22.08a5.61,5.61,0,0,0-.87-7.88l-3.51,4.38Z"/></g><g id="_Группа_20" data-name="&lt;Группа&gt;"><rect id="_Прямоугольник_31" data-name="&lt;Прямоугольник&gt;" class="cls-6" x="20.64" y="33.33" width="11.25" height="1.7" transform="translate(27.12 -8.91) rotate(38.68)"/><rect id="_Прямоугольник_32" data-name="&lt;Прямоугольник&gt;" class="cls-6" x="25.64" y="35.09" width="5.62" height="1.7" transform="translate(28.7 -9.9) rotate(38.67)"/></g><g id="_Группа_21" data-name="&lt;Группа&gt;"><rect id="_Прямоугольник_33" data-name="&lt;Прямоугольник&gt;" class="cls-6" x="30.84" y="20.57" width="11.25" height="1.7" transform="translate(21.39 -18.09) rotate(38.67)"/><rect id="_Прямоугольник_34" data-name="&lt;Прямоугольник&gt;" class="cls-6" x="35.85" y="22.33" width="5.62" height="1.7" transform="translate(22.97 -19.08) rotate(38.67)"/></g></g><g id="_Группа_22" data-name="&lt;Группа&gt;"><g id="_Группа_23" data-name="&lt;Группа&gt;"><path id="_Контур_17" data-name="&lt;Контур&gt;" class="cls-4" d="M7.85,57.19h0a1,1,0,0,1-.2-1.4l6.56-9.56A1,1,0,0,1,15.7,46L17,47.09a1,1,0,0,1,.1,1.52L9.25,57.1A1,1,0,0,1,7.85,57.19Z"/><path id="_Контур_18" data-name="&lt;Контур&gt;" class="cls-2" d="M17,47.09l-.67-.53L7.85,57.19h0a1,1,0,0,0,1.39-.1l7.89-8.49A1,1,0,0,0,17,47.09Z"/></g><g id="_Группа_24" data-name="&lt;Группа&gt;"><path id="_Контур_19" data-name="&lt;Контур&gt;" class="cls-5" d="M20.85,41a10.26,10.26,0,0,0-14.42,1.6l16,12.82A10.26,10.26,0,0,0,20.85,41Z"/><path id="_Контур_20" data-name="&lt;Контур&gt;" class="cls-5" d="M22.45,55.38A10.26,10.26,0,0,0,20.85,41l-6.41,8Z"/></g><g id="_Группа_25" data-name="&lt;Группа&gt;"><circle id="_Эллипс_" data-name="&lt;Эллипс&gt;" class="cls-3" cx="7.22" cy="57.97" r="2.13" transform="translate(-42.55 27.38) rotate(-51.33)"/><path id="_Контур_21" data-name="&lt;Контур&gt;" class="cls-3" d="M8.88,59.31a2.13,2.13,0,0,0-.33-3L5.88,59.64A2.13,2.13,0,0,0,8.88,59.31Z"/></g></g></g><g id="_Группа_26" data-name="&lt;Группа&gt;"><path id="_Контур_22" data-name="&lt;Контур&gt;" class="cls-5" d="M34.54,32l-8-6.38a1.37,1.37,0,0,1-.21-1.92h0a1.37,1.37,0,0,1,1.92-.21l8,6.38a1.37,1.37,0,0,1,.21,1.92h0A1.37,1.37,0,0,1,34.54,32Z"/><path id="_Контур_23" data-name="&lt;Контур&gt;" class="cls-5" d="M36.25,29.87l-4-3.19-1.71,2.14,4,3.19a1.37,1.37,0,0,0,1.71-2.14Z"/></g></g></svg>