<svg class="shuttle" data-name="Слой 1" xmlns="http://www.w3.org/2000/svg" viewBox="0 0 86 92">
    <defs>
        <style>
            .cls-1 {
                fill: #c8dce8;
            }
            .cls-2 {
                fill: #192244;
            }
            .cls-3 {
                fill: #ec8b2c;
            }
            .cls-4 {
                fill: #ffaf3c;
            }
            .cls-5 {
                fill: #f6f6f6;
            }
            .cls-6 {
                fill: #b4cedb;
            }
            .cls-7 {
                fill: #a1bec9;
            }
        </style>
    </defs>
    <title>shuttle</title>
    <g id="_Группа_" data-name="&lt;Группа&gt;">
        <g id="_Группа_2" data-name="&lt;Группа&gt;"><path id="_Контур_" data-name="&lt;Контур&gt;" class="cls-1" d="M52.48,14.58s-12.89,7.88-18.62,9.17c-6.87,1.55-18.81,1-27,10L22,47.68Z"/><path id="_Контур_2" data-name="&lt;Контур&gt;" class="cls-2" d="M10.76,30.27,25.5,43.85l3.67-4L15.81,27.55A25.93,25.93,0,0,0,10.76,30.27Z"/></g>
        <g id="_Группа_3" data-name="&lt;Группа&gt;"><path id="_Контур_3" data-name="&lt;Контур&gt;" class="cls-1" d="M73.81,34.24S67,47.73,66.18,53.55c-1,7,.56,18.83-7.74,27.75l-15.15-14Z"/><path id="_Контур_4" data-name="&lt;Контур&gt;" class="cls-2" d="M61.57,77.09,46.83,63.51l3.67-4L63.87,71.84A25.93,25.93,0,0,1,61.57,77.09Z"/></g><path id="_Контур_5" data-name="&lt;Контур&gt;" class="cls-3" d="M19.86,60.47s-5.54-.05-13.28,6.77l2.83-.46S3,70.78,1.17,78.11c0,0,5.07-3.14,7-3.76,0,0-5.67,8.36-5.95,16.44,0,0,7.36-.91,14.06-8.11,0,0-1.42,5.54-2.77,7.1,0,0,7.74-3.16,11.67-10.14l.11,3.6S31,76,31.07,70.79C31.13,63.73,26,59.35,19.86,60.47Z"/><path id="_Контур_6" data-name="&lt;Контур&gt;" class="cls-4" d="M21.22,64.85s-2.48,0-5.95,3l1.27-.21a9.21,9.21,0,0,0-3.69,5.08A24.36,24.36,0,0,1,16,71.07s-2.54,3.75-2.66,7.36a11.38,11.38,0,0,0,6.3-3.63A12.06,12.06,0,0,1,18.39,78a11.78,11.78,0,0,0,5.23-4.54l0,1.61s2.56-3.23,2.58-5.57C26.27,66.31,24,64.35,21.22,64.85Z"/><path id="_Контур_7" data-name="&lt;Контур&gt;" class="cls-1" d="M31.91,74.22,15.76,59.33a1.47,1.47,0,0,1,.37-2.24l5.24-3.58a1.34,1.34,0,0,1,1.67,0l14.14,13a1.35,1.35,0,0,1,.15,1.69L34.1,73.69A1.47,1.47,0,0,1,31.91,74.22Z"/><path id="_Контур_8" data-name="&lt;Контур&gt;" class="cls-1" d="M37.32,68.25a1.35,1.35,0,0,0-.15-1.69l-7-6.42L24,66.9l7.94,7.32a1.47,1.47,0,0,0,2.19-.53Z"/><path id="_Контур_9" data-name="&lt;Контур&gt;" class="cls-5" d="M76.53,31.08C83.54,22,87.59,8.7,82.2,3.73s-18.34.16-26.79,7.88a3.52,3.52,0,0,0-.75.6L21.4,48.29a3.59,3.59,0,0,0,.21,5.06L37.68,68.16A3.59,3.59,0,0,0,42.74,68L76,31.87A3.52,3.52,0,0,0,76.53,31.08Z"/><path id="_Контур_10" data-name="&lt;Контур&gt;" class="cls-5" d="M37.68,68.16A3.59,3.59,0,0,0,42.74,68L76,31.87a3.52,3.52,0,0,0,.54-.79C83.54,22,87.59,8.7,82.2,3.73l-52.56,57Z"/>
        <g id="_Группа_4" data-name="&lt;Группа&gt;"><rect id="_Прямоугольник_" data-name="&lt;Прямоугольник&gt;" class="cls-1" x="49" y="23.48" width="29.02" height="1.07" transform="translate(33.09 -36.69) rotate(42.67)"/><rect id="_Прямоугольник_2" data-name="&lt;Прямоугольник&gt;" class="cls-1" x="41.23" y="31.9" width="29.02" height="1.07" transform="translate(36.74 -29.19) rotate(42.67)"/><rect id="_Прямоугольник_3" data-name="&lt;Прямоугольник&gt;" class="cls-1" x="33.46" y="40.33" width="29.02" height="1.07" transform="translate(40.4 -21.69) rotate(42.67)"/><rect id="_Прямоугольник_4" data-name="&lt;Прямоугольник&gt;" class="cls-1" x="25.69" y="48.76" width="29.02" height="1.07" transform="translate(44.05 -14.2) rotate(42.67)"/></g>
        <g id="_Группа_5" data-name="&lt;Группа&gt;"><rect id="_Прямоугольник_5" data-name="&lt;Прямоугольник&gt;" class="cls-6" x="61.59" y="28.39" width="14.51" height="1.07" transform="translate(37.83 -39) rotate(42.67)"/><rect id="_Прямоугольник_6" data-name="&lt;Прямоугольник&gt;" class="cls-1" x="53.82" y="36.82" width="14.51" height="1.07" transform="translate(41.49 -31.5) rotate(42.67)"/><rect id="_Прямоугольник_7" data-name="&lt;Прямоугольник&gt;" class="cls-1" x="46.05" y="45.25" width="14.51" height="1.07" transform="translate(45.14 -24.01) rotate(42.67)"/><rect id="_Прямоугольник_8" data-name="&lt;Прямоугольник&gt;" class="cls-1" x="38.28" y="53.68" width="14.51" height="1.07" transform="translate(48.8 -16.51) rotate(42.67)"/></g>
        <g id="_Группа_6" data-name="&lt;Группа&gt;"><path id="_Контур_11" data-name="&lt;Контур&gt;" class="cls-2" d="M78.17,8.05C75,5.17,68.63,6.56,63.42,8.77l-.2,5.44c3.2-.89,7-1.44,8.94.36s1.73,5.69,1.07,9L78.6,23C80.44,17.55,81.33,11,78.17,8.05Z"/><path id="_Контур_12" data-name="&lt;Контур&gt;" class="cls-2" d="M78.2,8.08l-6,6.52c2,1.84,1.71,5.68,1,9L78.6,23C80.44,17.56,81.33,11,78.2,8.08Z"/></g>
        <g id="_Группа_7" data-name="&lt;Группа&gt;"><path id="_Контур_13" data-name="&lt;Контур&gt;" class="cls-2" d="M27.54,63h0a1.44,1.44,0,0,1-.08-2L42.59,44.6a1.44,1.44,0,0,1,2-.08h0a1.44,1.44,0,0,1,.08,2L29.56,63A1.44,1.44,0,0,1,27.54,63Z"/><path id="_Контур_14" data-name="&lt;Контур&gt;" class="cls-2" d="M29.56,63,44.7,46.54a1.44,1.44,0,0,0-.08-2L27.54,63A1.44,1.44,0,0,0,29.56,63Z"/></g>
        <g id="_Группа_8" data-name="&lt;Группа&gt;">
            <g id="_Группа_9" data-name="&lt;Группа&gt;"><circle id="_Эллипс_" data-name="&lt;Эллипс&gt;" class="cls-1" cx="58.62" cy="19.42" r="1.88" transform="translate(2.69 45.61) rotate(-43.42)"/><path id="_Контур_15" data-name="&lt;Контур&gt;" class="cls-1" d="M60.44,19.87,56.81,19a1.87,1.87,0,1,0,3.63.9Z"/><circle id="_Эллипс_2" data-name="&lt;Эллипс&gt;" class="cls-7" cx="58.62" cy="19.42" r="0.97" transform="translate(2.69 45.61) rotate(-43.42)"/></g>
            <g id="_Группа_10" data-name="&lt;Группа&gt;"><circle id="_Эллипс_3" data-name="&lt;Эллипс&gt;" class="cls-1" cx="68.76" cy="28.76" r="1.88" transform="translate(3.29 64.38) rotate(-51.25)"/><path id="_Контур_16" data-name="&lt;Контур&gt;" class="cls-1" d="M68.16,27l1.2,3.55A1.87,1.87,0,1,1,68.16,27Z"/><circle id="_Эллипс_4" data-name="&lt;Эллипс&gt;" class="cls-7" cx="68.76" cy="28.76" r="0.97" transform="translate(3.29 64.38) rotate(-51.25)"/></g>
        </g>
    </g>
</svg>
