<svg id="Слой_1" data-name="Слой 1" xmlns="http://www.w3.org/2000/svg" viewBox="0 0 104 61"><defs><style>.cls-1{fill:#ef4836;}.cls-2{fill:#f59186;}.cls-3{fill:#fff;}.cls-4{fill:#fbfcfc;}</style></defs><title>star-3</title><g id="_Группа_" data-name="&lt;Группа&gt;"><g id="_Группа_2" data-name="&lt;Группа&gt;"><g id="_Группа_3" data-name="&lt;Группа&gt;"><path id="_Контур_" data-name="&lt;Контур&gt;" class="cls-1" d="M99.81,9.27c1.58-.49-40.4,22.23-43.93,24.9-2.68,2-5.51,1.24-6.13,0s.24-4,3.46-4.95C58.65,27.59,95.11,10.71,99.81,9.27Z"/><path id="_Контур_2" data-name="&lt;Контур&gt;" class="cls-2" d="M90.32,13.79c1-.3-32.53,17.64-34.71,19.29-1.65,1.24-3.39.77-3.77,0S52,30.6,54,30C57.32,29,87.42,14.68,90.32,13.79Z"/><path id="_Контур_3" data-name="&lt;Контур&gt;" class="cls-3" d="M58.44,29.69c.48,1-3,3.93-4.38,4.62s-3,.45-3.44-.54.28-2.35,1.7-3S58,28.7,58.44,29.69Z"/></g><g id="_Группа_4" data-name="&lt;Группа&gt;"><path id="_Контур_4" data-name="&lt;Контур&gt;" class="cls-1" d="M86.83,27.51c2-.74-42.44,26.92-46.73,30.59-3.25,2.78-6.92,2-7.8.45s0-5.11,4-6.57C43.12,49.51,81,29.72,86.83,27.51Z"/><path id="_Контур_5" data-name="&lt;Контур&gt;" class="cls-2" d="M78.78,32c1.09-.41-36.48,22.24-38.85,24.28-1.8,1.54-3.83,1.12-4.32.25s0-2.83,2.22-3.64C41.6,51.54,75.54,33.24,78.78,32Z"/><path id="_Контур_6" data-name="&lt;Контур&gt;" class="cls-3" d="M42.72,52.82c.58,1.19-3.56,4.72-5.26,5.54s-3.56.54-4.13-.65.33-2.83,2-3.66S42.14,51.63,42.72,52.82Z"/></g><g id="_Группа_5" data-name="&lt;Группа&gt;"><path id="_Контур_7" data-name="&lt;Контур&gt;" class="cls-1" d="M102.49,25.87C103.73,25.4,83.33,38.66,80.63,41c-2,1.75-4.35,1.27-4.9.28s0-3.21,2.52-4.13C82.52,35.57,98.8,27.26,102.49,25.87Z"/><path id="_Контур_8" data-name="&lt;Контур&gt;" class="cls-2" d="M99.25,28c.61-.23-18.4,11.06-19.73,12.2-1,.86-2.14.63-2.42.14s0-1.58,1.24-2C80.45,37.52,97.43,28.67,99.25,28Z"/><path id="_Контур_9" data-name="&lt;Контур&gt;" class="cls-3" d="M82.47,37.57c.35.72-2.17,2.88-3.21,3.38s-2.17.33-2.53-.4.21-1.72,1.25-2.23S82.11,36.85,82.47,37.57Z"/></g></g><g id="_Группа_6" data-name="&lt;Группа&gt;"><path id="_Контур_10" data-name="&lt;Контур&gt;" class="cls-4" d="M40.84,31.25a.83.83,0,0,0,0-1.66.83.83,0,0,0,0,1.66Z"/></g><g id="_Группа_7" data-name="&lt;Группа&gt;"><path id="_Контур_11" data-name="&lt;Контур&gt;" class="cls-4" d="M28.62,35.07a.83.83,0,0,0,0-1.67.83.83,0,0,0,0,1.67Z"/></g><g id="_Группа_8" data-name="&lt;Группа&gt;"><path id="_Контур_12" data-name="&lt;Контур&gt;" class="cls-4" d="M27.09,45a.83.83,0,0,0,0-1.67.83.83,0,0,0,0,1.67Z"/></g><g id="_Группа_9" data-name="&lt;Группа&gt;"><path id="_Контур_13" data-name="&lt;Контур&gt;" class="cls-4" d="M1.88,46.91a.83.83,0,0,0,0-1.66.83.83,0,0,0,0,1.66Z"/></g><g id="_Группа_10" data-name="&lt;Группа&gt;"><path id="_Контур_14" data-name="&lt;Контур&gt;" class="cls-4" d="M15.63,44.62a.83.83,0,0,0,0-1.66.83.83,0,0,0,0,1.66Z"/></g><g id="_Группа_11" data-name="&lt;Группа&gt;"><path id="_Контур_15" data-name="&lt;Контур&gt;" class="cls-4" d="M18.31,32a.83.83,0,0,0,0-1.66.83.83,0,0,0,0,1.66Z"/></g><g id="_Группа_12" data-name="&lt;Группа&gt;"><path id="_Контур_16" data-name="&lt;Контур&gt;" class="cls-4" d="M43.52,44.62a.83.83,0,0,0,0-1.66.83.83,0,0,0,0,1.66Z"/></g><g id="_Группа_13" data-name="&lt;Группа&gt;"><path id="_Контур_17" data-name="&lt;Контур&gt;" class="cls-4" d="M48.48,19.41a.83.83,0,0,0,0-1.66.83.83,0,0,0,0,1.66Z"/></g><g id="_Группа_14" data-name="&lt;Группа&gt;"><path id="_Контур_18" data-name="&lt;Контур&gt;" class="cls-4" d="M39.7,9.1a.83.83,0,0,0,0-1.66.83.83,0,0,0,0,1.66Z"/></g><g id="_Группа_15" data-name="&lt;Группа&gt;"><path id="_Контур_19" data-name="&lt;Контур&gt;" class="cls-4" d="M35.5,23.61a.83.83,0,0,0,0-1.66.83.83,0,0,0,0,1.66Z"/></g><g id="_Группа_16" data-name="&lt;Группа&gt;"><path id="_Контур_20" data-name="&lt;Контур&gt;" class="cls-4" d="M13.72,12.92a.83.83,0,0,0,0-1.66.83.83,0,0,0,0,1.66Z"/></g><g id="_Группа_17" data-name="&lt;Группа&gt;"><path id="_Контур_21" data-name="&lt;Контур&gt;" class="cls-4" d="M22.51,18.64a.83.83,0,0,0,0-1.66.83.83,0,0,0,0,1.66Z"/></g><g id="_Группа_18" data-name="&lt;Группа&gt;"><path id="_Контур_22" data-name="&lt;Контур&gt;" class="cls-4" d="M56.5,3a.83.83,0,0,0,0-1.67A.83.83,0,0,0,56.5,3Z"/></g><g id="_Группа_19" data-name="&lt;Группа&gt;"><path id="_Контур_23" data-name="&lt;Контур&gt;" class="cls-4" d="M54.21,16a.83.83,0,0,0,0-1.67.83.83,0,0,0,0,1.67Z"/></g><g id="_Группа_20" data-name="&lt;Группа&gt;"><path id="_Контур_24" data-name="&lt;Контур&gt;" class="cls-4" d="M72.16,16a.83.83,0,0,0,0-1.67.83.83,0,0,0,0,1.67Z"/></g><g id="_Группа_21" data-name="&lt;Группа&gt;"><path id="_Контур_25" data-name="&lt;Контур&gt;" class="cls-4" d="M66.82,7.57a.83.83,0,0,0,0-1.67.83.83,0,0,0,0,1.67Z"/></g><g id="_Группа_22" data-name="&lt;Группа&gt;"><path id="_Контур_26" data-name="&lt;Контур&gt;" class="cls-4" d="M72.55,29.34a.83.83,0,0,0,0-1.67.83.83,0,0,0,0,1.67Z"/></g><g id="_Группа_23" data-name="&lt;Группа&gt;"><path id="_Контур_27" data-name="&lt;Контур&gt;" class="cls-4" d="M87.83,22.08a.83.83,0,0,0,0-1.66.83.83,0,0,0,0,1.66Z"/></g><g id="_Группа_24" data-name="&lt;Группа&gt;"><path id="_Контур_28" data-name="&lt;Контур&gt;" class="cls-4" d="M62.23,21.32a.83.83,0,0,0,0-1.66.83.83,0,0,0,0,1.66Z"/></g><g id="_Группа_25" data-name="&lt;Группа&gt;"><path id="_Контур_29" data-name="&lt;Контур&gt;" class="cls-4" d="M53.83,40.8a.83.83,0,0,0,0-1.67.83.83,0,0,0,0,1.67Z"/></g><g id="_Группа_26" data-name="&lt;Группа&gt;"><path id="_Контур_30" data-name="&lt;Контур&gt;" class="cls-4" d="M71.78,46.15a.83.83,0,0,0,0-1.67.83.83,0,0,0,0,1.67Z"/></g><g id="_Группа_27" data-name="&lt;Группа&gt;"><path id="_Контур_31" data-name="&lt;Контур&gt;" class="cls-4" d="M81.33,10.63a.83.83,0,0,0,0-1.67.83.83,0,0,0,0,1.67Z"/></g></g></svg>