<svg style="display: none;" version="1.1" xmlns="http://www.w3.org/2000/svg" xmlns:xlink="http://www.w3.org/1999/xlink">
    <defs>
        <symbol id="icon-mobilefirst" viewbox="0 0 32 32" fill="#0076fe">
            <title>icon-mobilefirst--desktop</title>
            <path
                class="path1"
                d="M11.467 1.2l1.173 1.2-3.413 3.467h-9.227v1.6h7.6l-6.24 6.24-0.693-0.64-0.667-0.613v1.067c0 0.773 0.16 1.227 0.667 1.68l0.693 0.64 8.373-8.373h5.733l-0.213 0.853c-0.427 1.893-0.187 5.867 0.453 7.733 1.92 5.653 6.907 9.52 12.853 10 2.72 0.213 3.44 0.027 3.44-0.933v-0.747l-1.813 0.107c-8.32 0.48-15.12-7.493-13.36-15.68l0.293-1.333h14.88v-1.6h-7.067c-3.893 0-7.067-0.053-7.067-0.133s0.32-0.64 0.693-1.227c0.827-1.333 2.72-3.253 3.893-3.973l0.88-0.533h-1.493c-1.467 0-1.52 0.027-2.827 1.413-0.747 0.8-1.733 2.107-2.213 2.933l-0.853 1.52h-2.293l-2.32-0.027 1.813-1.653 1.787-1.653-1.28-1.28c-1.067-1.067-1.44-1.253-2.32-1.253h-1.040l1.173 1.2z"></path>
            <path class="path2" d="M0 16.8v0.8h5.333v11.733h8v1.333c0 1.307 0.027 1.333 0.8 1.333h0.8v-16h-14.933v0.8zM13.333 22.667v5.067h-6.4v-10.133h6.4v5.067z"></path>
        </symbol>
        <symbol id="icon-progressive" viewbox="0 0 32 32" fill="#0076fe">
            <title>icon-progressive--desktop</title>
            <path
                class="path1"
                d="M27.867 0.773l-1.333 0.693-7.867-0.080c-8.507-0.053-9.973 0.080-12.107 1.227-2.587 1.413-6.693 7.040-6.507 8.933 0.080 0.8 0.16 0.693 1.627-1.76 2-3.333 4.267-5.787 6.107-6.613 1.387-0.64 1.52-0.64 8.96-0.56 9.653 0.080 11.173-0.16 13.787-2.187 0.507-0.4 0.48-0.4-0.4-0.373-0.507 0-1.52 0.347-2.267 0.72z"></path>
            <path
                class="path2"
                d="M30.373 2.773c-2.853 1.707-3.147 1.733-13.84 1.493-4.613-0.107-5.040-0.080-6.533 0.48-2.987 1.12-4.32 2.453-7.2 7.093-0.693 1.173-1.627 2.507-2.053 2.96-0.427 0.507-0.747 1.173-0.747 1.627v0.72l0.72-0.64c0.373-0.347 1.68-2.16 2.907-4 3.493-5.36 4.48-6.24 7.973-7.067 1.68-0.4 2.48-0.4 7.6-0.107 6.773 0.373 8.213 0.213 10.933-1.227 1.52-0.773 1.867-1.093 1.867-1.6 0-0.347-0.027-0.64-0.053-0.64-0.053 0.027-0.747 0.427-1.573 0.907z"></path>
            <path
                class="path3"
                d="M29.333 7.84c-3.307 1.493-4.373 2.187-6.853 4.453-3.093 2.827-5.307 4.427-7.68 5.573-3.067 1.44-7.92 2.933-10.427 3.2-2.96 0.32-4.373 0.747-4.373 1.387 0 0.56 0.213 0.587 1.227 0.213 0.373-0.16 1.84-0.4 3.2-0.533 1.627-0.16 3.6-0.64 5.653-1.307 6.080-2.053 7.867-3.093 13.12-7.733 2.133-1.893 3.36-2.747 5.2-3.627 1.307-0.613 2.667-1.227 3.013-1.333 0.4-0.107 0.587-0.373 0.587-0.827 0-0.347-0.027-0.64-0.053-0.613-0.053 0-1.227 0.507-2.613 1.147z"></path>
            <path
                class="path4"
                d="M13.92 7.493c-3.68 0.48-6.88 2.72-8.48 5.973-1.707 3.467-1.493 5.467 0.64 5.467 2.667 0 11.573-4.613 14.4-7.467 1.467-1.467 1.653-2.24 0.8-3.093-1.013-1.040-3.707-1.36-7.36-0.88zM20.107 8.8c0.88 0.32 0.88 0.587-0.133 1.733-2.027 2.293-10.907 7.040-13.387 7.147l-1.12 0.053 0.027-0.96c0.053-1.387 1.44-4.187 2.667-5.387 1.36-1.333 4-2.613 5.893-2.88 1.813-0.24 5.067-0.107 6.053 0.293z"></path>
            <path
                class="path5"
                d="M30.48 11.2c-1.92 0.853-4.747 2.8-6.72 4.64-2 1.813-5.333 4.133-7.627 5.28-2.533 1.307-7.333 2.613-11.333 3.12-3.787 0.507-4.8 0.8-4.8 1.413 0 0.427 0.107 0.507 0.613 0.373 0.32-0.107 1.547-0.293 2.72-0.453 3.653-0.48 8.427-1.573 10.853-2.48 3.733-1.413 6.373-3.147 12.267-8.107 0.827-0.693 2.427-1.733 3.52-2.32 1.333-0.72 2.027-1.227 2.027-1.547 0-0.56-0.133-0.56-1.52 0.080z"></path>
            <path
                class="path6"
                d="M29.973 14.907c-0.88 0.56-2.773 2.107-4.187 3.44-5.973 5.6-12.080 8.373-20.72 9.36-1.253 0.133-2.907 0.4-3.653 0.56-1.2 0.267-1.413 0.4-1.413 0.907v0.587l2.053-0.453c1.147-0.267 3.227-0.613 4.613-0.773 3.333-0.427 8.56-1.867 10.907-3.040 2.88-1.413 6.427-3.973 9.387-6.72 1.467-1.36 3.2-2.8 3.84-3.2 0.747-0.427 1.2-0.88 1.2-1.2 0-0.72-0.24-0.64-2.027 0.533z"></path>
            <path
                class="path7"
                d="M30.907 17.947c-2.080 1.28-3.707 3.067-3.707 4.053 0 1.013 0.88 1.52 2.933 1.68 1.733 0.107 1.867 0.080 1.867-0.4s-0.213-0.56-1.733-0.667c-0.933-0.053-1.813-0.187-1.92-0.293-0.453-0.453 1.52-2.613 3.28-3.6 0.24-0.133 0.373-0.48 0.32-0.8l-0.080-0.56-0.96 0.587z"></path>
            <path
                class="path8"
                d="M23.6 25.253c-0.293 0.080-1.84 0.773-3.467 1.547-3.387 1.627-8.16 3.253-12.933 4.4l-3.333 0.8 2.933-0.080c2.72-0.080 3.227-0.187 7.067-1.493 2.267-0.773 5.387-2 6.933-2.773l2.8-1.387 4.213 0.027c3.813 0.053 4.187 0 4.187-0.427 0-0.373-0.347-0.48-2.187-0.613-2.453-0.213-5.387-0.187-6.213 0z"></path>
            <path
                class="path9"
                d="M24.133 29.147c-0.427 0.187-1.333 0.613-2 0.96s-1.867 0.933-2.667 1.253l-1.467 0.613 1.413 0.027c1.147 0 1.813-0.213 3.493-1.093l2.080-1.067 3.52 0.080c3.387 0.080 3.52 0.053 3.44-0.453s-0.293-0.533-3.547-0.587c-2.187-0.027-3.76 0.080-4.267 0.267z"></path>
        </symbol>
        <symbol id="icon-responsive" viewbox="0 0 32 32" fill="#0076fe">
            <title>icon-responsive--desktop</title>
            <path
                class="path1"
                d="M10.133 1.787c-0.427 2.56-1.44 4.507-3.307 6.373-1.733 1.707-3.84 2.907-5.733 3.2-0.987 0.16-1.093 0.24-1.093 0.933 0 0.96 0.56 1.013 2.8 0.24 2.16-0.747 3.627-1.653 5.2-3.2 2.133-2.16 3.467-4.88 3.84-7.947l0.187-1.387h-0.8c-0.747 0-0.773 0.053-1.093 1.787z"></path>
            <path
                class="path2"
                d="M14.133 4.373v4.4l6.667 0.16-13.067 13.067v-7.067h-7.733v0.667c0 0.64 0 0.64 2.987 0.72l3.013 0.080 0.080 4.987 0.053 5.013h-6.133v1.6h7.733v-6l5.013 5.013c4.8 4.8 5.040 4.987 6.053 4.987h1.067l-4.88-4.88c-2.667-2.667-4.853-4.987-4.853-5.12 0-0.347 10.453-10.8 10.8-10.8 0.16 0 2.667 2.4 5.6 5.333l5.333 5.333-10.133 10.133h1.2c1.173 0 1.227-0.027 5.12-3.92l3.947-3.947v-4.267l-11.067-11.067h11.067v-4.4c0-4.213-0.027-4.4-0.533-4.4s-0.533 0.187-0.533 3.6v3.6h-10.133v-7.2h-1.6v7.227l-3.52-0.16-0.027-3.467-0.053-3.467-0.72-0.080-0.747-0.080v4.4z"></path>
        </symbol>
        <symbol id="icon-sparks" viewbox="0 0 33 32" fill="#0076fe">
            <title>icon-sparks</title>
            <path class="path1" d="M0.64 0.657l-0.657 0.675 1.401 1.366c0.778 0.744 1.505 1.384 1.609 1.418 0.121 0.017 0.484-0.225 0.813-0.571l0.588-0.605-1.453-1.47c-0.813-0.813-1.505-1.47-1.557-1.47s-0.398 0.294-0.744 0.657z"></path>
            <path class="path2" d="M29.924 1.47l-1.47 1.47 1.384 1.384 2.941-2.941-1.384-1.384-1.47 1.47z"></path>
            <path class="path3" d="M1.557 29.146l-1.47 1.47 1.384 1.384 2.941-2.941-1.384-1.384-1.47 1.47z"></path>
            <path class="path4" d="M29.059 28.454l-0.588 0.605 1.505 1.522 1.505 1.505 0.709-0.709 0.692-0.709-1.401-1.366c-0.778-0.744-1.505-1.384-1.609-1.418-0.121-0.017-0.484 0.225-0.813 0.571z"></path>
        </symbol>
    </defs>
</svg>
